%FSLAX45Y45*%
G04 Gerber Fmt 4.5, Leading zero omitted, Abs format (unit mm)*
G04 Created by KiCad (PCBNEW (5.1.6)-1) date 2021-04-11 16:09:23*
%MOMM*%
%LPD*%
G01*
G04 APERTURE LIST*
%TA.AperFunction,Profile*%
%ADD10C,0.200000*%
%TD*%
%ADD11C,0.200000*%
%ADD12C,0.300000*%
G04 APERTURE END LIST*
D10*
X6159500Y-15875000D02*
X6159500Y-14872000D01*
X11938000Y-15875000D02*
X11938000Y-14872000D01*
X14500000Y-15875000D02*
X11938000Y-15875000D01*
X14500000Y-15875000D02*
X14500000Y-14872000D01*
X3800000Y-15875000D02*
X6159500Y-15875000D01*
X9779000Y-14872000D02*
X11938000Y-14872000D01*
X9779000Y-15875000D02*
X9779000Y-14872000D01*
X9779000Y-15875000D02*
X8509000Y-15875000D01*
X8509000Y-15875000D02*
X8509000Y-14872000D01*
X6553200Y-14414500D02*
G75*
G02*
X6261100Y-14414500I-146050J0D01*
G01*
X6261100Y-13525500D02*
G75*
G02*
X6553200Y-13525500I146050J0D01*
G01*
X7192500Y-12382500D02*
G75*
G02*
X6902500Y-12382500I-145000J0D01*
G01*
X6902500Y-9842500D02*
G75*
G02*
X7192500Y-9842500I145000J0D01*
G01*
X4241800Y-8780000D02*
G75*
G02*
X4241800Y-8490000I0J145000D01*
G01*
X7048500Y-8490000D02*
G75*
G02*
X7048500Y-8780000I0J-145000D01*
G01*
X13779500Y-10541000D02*
X13779500Y-6872000D01*
X14500000Y-10541000D02*
X13779500Y-10541000D01*
X6553200Y-13525500D02*
X6553200Y-14414500D01*
X6261100Y-14414500D02*
X6261100Y-13525500D01*
X7192500Y-9842500D02*
X7192500Y-12382500D01*
X6902500Y-12382500D02*
X6902500Y-9842500D01*
X4241800Y-8490000D02*
X7048500Y-8490000D01*
X7048500Y-8780000D02*
X4241800Y-8780000D01*
X3800000Y-6872000D02*
X13779500Y-6872000D01*
X6159500Y-14872000D02*
X8509000Y-14872000D01*
X14500000Y-10541000D02*
X14500000Y-14872000D01*
X3800000Y-6872000D02*
X3800000Y-15875000D01*
D11*
X10766000Y-13234500D02*
X10951000Y-13419500D01*
X10951000Y-13234500D02*
X10766000Y-13419500D01*
X10766000Y-14139500D02*
X10951000Y-14324500D01*
X10951000Y-14139500D02*
X10766000Y-14324500D01*
X9057500Y-13234500D02*
X9242500Y-13419500D01*
X9242500Y-13234500D02*
X9057500Y-13419500D01*
X9057500Y-14139500D02*
X9242500Y-14324500D01*
X9242500Y-14139500D02*
X9057500Y-14324500D01*
X7337000Y-13234500D02*
X7522000Y-13419500D01*
X7522000Y-13234500D02*
X7337000Y-13419500D01*
X7337000Y-14139500D02*
X7522000Y-14324500D01*
X7522000Y-14139500D02*
X7337000Y-14324500D01*
X14270500Y-15557500D02*
G75*
G03*
X14270500Y-15557500I-110000J0D01*
G01*
X4301000Y-13462000D02*
G75*
G03*
X4301000Y-13462000I-110000J0D01*
G01*
X6015500Y-15557500D02*
G75*
G03*
X6015500Y-15557500I-110000J0D01*
G01*
X14270500Y-11049000D02*
G75*
G03*
X14270500Y-11049000I-110000J0D01*
G01*
X8428500Y-12382500D02*
G75*
G03*
X8428500Y-12382500I-110000J0D01*
G01*
X8428500Y-14605000D02*
G75*
G03*
X8428500Y-14605000I-110000J0D01*
G01*
X12111500Y-14224000D02*
G75*
G03*
X12111500Y-14224000I-110000J0D01*
G01*
X10651000Y-8572500D02*
G75*
G03*
X10651000Y-8572500I-110000J0D01*
G01*
X4237500Y-8001000D02*
G75*
G03*
X4237500Y-8001000I-110000J0D01*
G01*
X6523500Y-9969500D02*
G75*
G03*
X6523500Y-9969500I-110000J0D01*
G01*
X6100000Y-9012000D02*
X6100000Y-9332000D01*
X5940000Y-9172000D02*
X6260000Y-9172000D01*
X6100000Y-12412000D02*
X6100000Y-12732000D01*
X5940000Y-12572000D02*
X6260000Y-12572000D01*
X4307574Y-15293174D02*
X4307574Y-15059826D01*
X4074226Y-15059826D01*
X4074226Y-15293174D01*
X4307574Y-15293174D01*
X5450774Y-15293174D02*
X5450774Y-15059826D01*
X5217426Y-15059826D01*
X5217426Y-15293174D01*
X5450774Y-15293174D01*
D12*
X4076428Y-16350714D02*
X4076428Y-16050714D01*
X4147857Y-16050714D01*
X4190714Y-16065000D01*
X4219286Y-16093571D01*
X4233571Y-16122143D01*
X4247857Y-16179286D01*
X4247857Y-16222143D01*
X4233571Y-16279286D01*
X4219286Y-16307857D01*
X4190714Y-16336429D01*
X4147857Y-16350714D01*
X4076428Y-16350714D01*
X4376428Y-16350714D02*
X4376428Y-16150714D01*
X4376428Y-16207857D02*
X4390714Y-16179286D01*
X4405000Y-16165000D01*
X4433571Y-16150714D01*
X4462143Y-16150714D01*
X4562143Y-16350714D02*
X4562143Y-16150714D01*
X4562143Y-16050714D02*
X4547857Y-16065000D01*
X4562143Y-16079286D01*
X4576428Y-16065000D01*
X4562143Y-16050714D01*
X4562143Y-16079286D01*
X4747857Y-16350714D02*
X4719286Y-16336429D01*
X4705000Y-16307857D01*
X4705000Y-16050714D01*
X4905000Y-16350714D02*
X4876428Y-16336429D01*
X4862143Y-16307857D01*
X4862143Y-16050714D01*
X5247857Y-16350714D02*
X5247857Y-16050714D01*
X5347857Y-16265000D01*
X5447857Y-16050714D01*
X5447857Y-16350714D01*
X5719286Y-16350714D02*
X5719286Y-16193571D01*
X5705000Y-16165000D01*
X5676428Y-16150714D01*
X5619286Y-16150714D01*
X5590714Y-16165000D01*
X5719286Y-16336429D02*
X5690714Y-16350714D01*
X5619286Y-16350714D01*
X5590714Y-16336429D01*
X5576428Y-16307857D01*
X5576428Y-16279286D01*
X5590714Y-16250714D01*
X5619286Y-16236429D01*
X5690714Y-16236429D01*
X5719286Y-16222143D01*
X5862143Y-16150714D02*
X5862143Y-16450714D01*
X5862143Y-16165000D02*
X5890714Y-16150714D01*
X5947857Y-16150714D01*
X5976428Y-16165000D01*
X5990714Y-16179286D01*
X6005000Y-16207857D01*
X6005000Y-16293571D01*
X5990714Y-16322143D01*
X5976428Y-16336429D01*
X5947857Y-16350714D01*
X5890714Y-16350714D01*
X5862143Y-16336429D01*
X6133571Y-16322143D02*
X6147857Y-16336429D01*
X6133571Y-16350714D01*
X6119286Y-16336429D01*
X6133571Y-16322143D01*
X6133571Y-16350714D01*
X6133571Y-16165000D02*
X6147857Y-16179286D01*
X6133571Y-16193571D01*
X6119286Y-16179286D01*
X6133571Y-16165000D01*
X6133571Y-16193571D01*
X3605000Y-16752500D02*
X3790000Y-16937500D01*
X3790000Y-16752500D02*
X3605000Y-16937500D01*
X4233571Y-16980714D02*
X4062143Y-16980714D01*
X4147857Y-16980714D02*
X4147857Y-16680714D01*
X4119286Y-16723571D01*
X4090714Y-16752143D01*
X4062143Y-16766429D01*
X4362143Y-16952143D02*
X4376428Y-16966429D01*
X4362143Y-16980714D01*
X4347857Y-16966429D01*
X4362143Y-16952143D01*
X4362143Y-16980714D01*
X4547857Y-16809286D02*
X4519286Y-16795000D01*
X4505000Y-16780714D01*
X4490714Y-16752143D01*
X4490714Y-16737857D01*
X4505000Y-16709286D01*
X4519286Y-16695000D01*
X4547857Y-16680714D01*
X4605000Y-16680714D01*
X4633571Y-16695000D01*
X4647857Y-16709286D01*
X4662143Y-16737857D01*
X4662143Y-16752143D01*
X4647857Y-16780714D01*
X4633571Y-16795000D01*
X4605000Y-16809286D01*
X4547857Y-16809286D01*
X4519286Y-16823572D01*
X4505000Y-16837857D01*
X4490714Y-16866429D01*
X4490714Y-16923572D01*
X4505000Y-16952143D01*
X4519286Y-16966429D01*
X4547857Y-16980714D01*
X4605000Y-16980714D01*
X4633571Y-16966429D01*
X4647857Y-16952143D01*
X4662143Y-16923572D01*
X4662143Y-16866429D01*
X4647857Y-16837857D01*
X4633571Y-16823572D01*
X4605000Y-16809286D01*
X4933571Y-16680714D02*
X4790714Y-16680714D01*
X4776428Y-16823572D01*
X4790714Y-16809286D01*
X4819286Y-16795000D01*
X4890714Y-16795000D01*
X4919286Y-16809286D01*
X4933571Y-16823572D01*
X4947857Y-16852143D01*
X4947857Y-16923572D01*
X4933571Y-16952143D01*
X4919286Y-16966429D01*
X4890714Y-16980714D01*
X4819286Y-16980714D01*
X4790714Y-16966429D01*
X4776428Y-16952143D01*
X5076428Y-16980714D02*
X5076428Y-16780714D01*
X5076428Y-16809286D02*
X5090714Y-16795000D01*
X5119286Y-16780714D01*
X5162143Y-16780714D01*
X5190714Y-16795000D01*
X5205000Y-16823572D01*
X5205000Y-16980714D01*
X5205000Y-16823572D02*
X5219286Y-16795000D01*
X5247857Y-16780714D01*
X5290714Y-16780714D01*
X5319286Y-16795000D01*
X5333571Y-16823572D01*
X5333571Y-16980714D01*
X5476428Y-16980714D02*
X5476428Y-16780714D01*
X5476428Y-16809286D02*
X5490714Y-16795000D01*
X5519286Y-16780714D01*
X5562143Y-16780714D01*
X5590714Y-16795000D01*
X5605000Y-16823572D01*
X5605000Y-16980714D01*
X5605000Y-16823572D02*
X5619286Y-16795000D01*
X5647857Y-16780714D01*
X5690714Y-16780714D01*
X5719286Y-16795000D01*
X5733571Y-16823572D01*
X5733571Y-16980714D01*
X6319286Y-16666429D02*
X6062143Y-17052143D01*
X6705000Y-16680714D02*
X6733571Y-16680714D01*
X6762143Y-16695000D01*
X6776428Y-16709286D01*
X6790714Y-16737857D01*
X6805000Y-16795000D01*
X6805000Y-16866429D01*
X6790714Y-16923572D01*
X6776428Y-16952143D01*
X6762143Y-16966429D01*
X6733571Y-16980714D01*
X6705000Y-16980714D01*
X6676428Y-16966429D01*
X6662143Y-16952143D01*
X6647857Y-16923572D01*
X6633571Y-16866429D01*
X6633571Y-16795000D01*
X6647857Y-16737857D01*
X6662143Y-16709286D01*
X6676428Y-16695000D01*
X6705000Y-16680714D01*
X6933571Y-16952143D02*
X6947857Y-16966429D01*
X6933571Y-16980714D01*
X6919286Y-16966429D01*
X6933571Y-16952143D01*
X6933571Y-16980714D01*
X7133571Y-16680714D02*
X7162143Y-16680714D01*
X7190714Y-16695000D01*
X7205000Y-16709286D01*
X7219286Y-16737857D01*
X7233571Y-16795000D01*
X7233571Y-16866429D01*
X7219286Y-16923572D01*
X7205000Y-16952143D01*
X7190714Y-16966429D01*
X7162143Y-16980714D01*
X7133571Y-16980714D01*
X7105000Y-16966429D01*
X7090714Y-16952143D01*
X7076428Y-16923572D01*
X7062143Y-16866429D01*
X7062143Y-16795000D01*
X7076428Y-16737857D01*
X7090714Y-16709286D01*
X7105000Y-16695000D01*
X7133571Y-16680714D01*
X7333571Y-16680714D02*
X7533571Y-16680714D01*
X7405000Y-16980714D01*
X7619286Y-16680714D02*
X7805000Y-16680714D01*
X7705000Y-16795000D01*
X7747857Y-16795000D01*
X7776428Y-16809286D01*
X7790714Y-16823572D01*
X7805000Y-16852143D01*
X7805000Y-16923572D01*
X7790714Y-16952143D01*
X7776428Y-16966429D01*
X7747857Y-16980714D01*
X7662143Y-16980714D01*
X7633571Y-16966429D01*
X7619286Y-16952143D01*
X7919286Y-16680714D02*
X7919286Y-16737857D01*
X8033571Y-16680714D02*
X8033571Y-16737857D01*
X8476428Y-17095000D02*
X8462143Y-17080714D01*
X8433571Y-17037857D01*
X8419286Y-17009286D01*
X8405000Y-16966429D01*
X8390714Y-16895000D01*
X8390714Y-16837857D01*
X8405000Y-16766429D01*
X8419286Y-16723571D01*
X8433571Y-16695000D01*
X8462143Y-16652143D01*
X8476428Y-16637857D01*
X8719286Y-16680714D02*
X8662143Y-16680714D01*
X8633571Y-16695000D01*
X8619286Y-16709286D01*
X8590714Y-16752143D01*
X8576428Y-16809286D01*
X8576428Y-16923572D01*
X8590714Y-16952143D01*
X8605000Y-16966429D01*
X8633571Y-16980714D01*
X8690714Y-16980714D01*
X8719286Y-16966429D01*
X8733571Y-16952143D01*
X8747857Y-16923572D01*
X8747857Y-16852143D01*
X8733571Y-16823572D01*
X8719286Y-16809286D01*
X8690714Y-16795000D01*
X8633571Y-16795000D01*
X8605000Y-16809286D01*
X8590714Y-16823572D01*
X8576428Y-16852143D01*
X9105000Y-16980714D02*
X9105000Y-16680714D01*
X9233571Y-16980714D02*
X9233571Y-16823572D01*
X9219286Y-16795000D01*
X9190714Y-16780714D01*
X9147857Y-16780714D01*
X9119286Y-16795000D01*
X9105000Y-16809286D01*
X9419286Y-16980714D02*
X9390714Y-16966429D01*
X9376428Y-16952143D01*
X9362143Y-16923572D01*
X9362143Y-16837857D01*
X9376428Y-16809286D01*
X9390714Y-16795000D01*
X9419286Y-16780714D01*
X9462143Y-16780714D01*
X9490714Y-16795000D01*
X9505000Y-16809286D01*
X9519286Y-16837857D01*
X9519286Y-16923572D01*
X9505000Y-16952143D01*
X9490714Y-16966429D01*
X9462143Y-16980714D01*
X9419286Y-16980714D01*
X9690714Y-16980714D02*
X9662143Y-16966429D01*
X9647857Y-16937857D01*
X9647857Y-16680714D01*
X9919286Y-16966429D02*
X9890714Y-16980714D01*
X9833571Y-16980714D01*
X9805000Y-16966429D01*
X9790714Y-16937857D01*
X9790714Y-16823572D01*
X9805000Y-16795000D01*
X9833571Y-16780714D01*
X9890714Y-16780714D01*
X9919286Y-16795000D01*
X9933571Y-16823572D01*
X9933571Y-16852143D01*
X9790714Y-16880714D01*
X10047857Y-16966429D02*
X10076428Y-16980714D01*
X10133571Y-16980714D01*
X10162143Y-16966429D01*
X10176428Y-16937857D01*
X10176428Y-16923572D01*
X10162143Y-16895000D01*
X10133571Y-16880714D01*
X10090714Y-16880714D01*
X10062143Y-16866429D01*
X10047857Y-16837857D01*
X10047857Y-16823572D01*
X10062143Y-16795000D01*
X10090714Y-16780714D01*
X10133571Y-16780714D01*
X10162143Y-16795000D01*
X10276428Y-17095000D02*
X10290714Y-17080714D01*
X10319286Y-17037857D01*
X10333571Y-17009286D01*
X10347857Y-16966429D01*
X10362143Y-16895000D01*
X10362143Y-16837857D01*
X10347857Y-16766429D01*
X10333571Y-16723571D01*
X10319286Y-16695000D01*
X10290714Y-16652143D01*
X10276428Y-16637857D01*
X10819286Y-17095000D02*
X10805000Y-17080714D01*
X10776428Y-17037857D01*
X10762143Y-17009286D01*
X10747857Y-16966429D01*
X10733571Y-16895000D01*
X10733571Y-16837857D01*
X10747857Y-16766429D01*
X10762143Y-16723571D01*
X10776428Y-16695000D01*
X10805000Y-16652143D01*
X10819286Y-16637857D01*
X10933571Y-16780714D02*
X10933571Y-16980714D01*
X10933571Y-16809286D02*
X10947857Y-16795000D01*
X10976428Y-16780714D01*
X11019286Y-16780714D01*
X11047857Y-16795000D01*
X11062143Y-16823572D01*
X11062143Y-16980714D01*
X11247857Y-16980714D02*
X11219286Y-16966429D01*
X11205000Y-16952143D01*
X11190714Y-16923572D01*
X11190714Y-16837857D01*
X11205000Y-16809286D01*
X11219286Y-16795000D01*
X11247857Y-16780714D01*
X11290714Y-16780714D01*
X11319286Y-16795000D01*
X11333571Y-16809286D01*
X11347857Y-16837857D01*
X11347857Y-16923572D01*
X11333571Y-16952143D01*
X11319286Y-16966429D01*
X11290714Y-16980714D01*
X11247857Y-16980714D01*
X11433571Y-16780714D02*
X11547857Y-16780714D01*
X11476428Y-16680714D02*
X11476428Y-16937857D01*
X11490714Y-16966429D01*
X11519286Y-16980714D01*
X11547857Y-16980714D01*
X11876428Y-16780714D02*
X11876428Y-17080714D01*
X11876428Y-16795000D02*
X11905000Y-16780714D01*
X11962143Y-16780714D01*
X11990714Y-16795000D01*
X12005000Y-16809286D01*
X12019286Y-16837857D01*
X12019286Y-16923572D01*
X12005000Y-16952143D01*
X11990714Y-16966429D01*
X11962143Y-16980714D01*
X11905000Y-16980714D01*
X11876428Y-16966429D01*
X12190714Y-16980714D02*
X12162143Y-16966429D01*
X12147857Y-16937857D01*
X12147857Y-16680714D01*
X12433571Y-16980714D02*
X12433571Y-16823572D01*
X12419286Y-16795000D01*
X12390714Y-16780714D01*
X12333571Y-16780714D01*
X12305000Y-16795000D01*
X12433571Y-16966429D02*
X12405000Y-16980714D01*
X12333571Y-16980714D01*
X12305000Y-16966429D01*
X12290714Y-16937857D01*
X12290714Y-16909286D01*
X12305000Y-16880714D01*
X12333571Y-16866429D01*
X12405000Y-16866429D01*
X12433571Y-16852143D01*
X12533571Y-16780714D02*
X12647857Y-16780714D01*
X12576428Y-16680714D02*
X12576428Y-16937857D01*
X12590714Y-16966429D01*
X12619286Y-16980714D01*
X12647857Y-16980714D01*
X12862143Y-16966429D02*
X12833571Y-16980714D01*
X12776428Y-16980714D01*
X12747857Y-16966429D01*
X12733571Y-16937857D01*
X12733571Y-16823572D01*
X12747857Y-16795000D01*
X12776428Y-16780714D01*
X12833571Y-16780714D01*
X12862143Y-16795000D01*
X12876428Y-16823572D01*
X12876428Y-16852143D01*
X12733571Y-16880714D01*
X13133571Y-16980714D02*
X13133571Y-16680714D01*
X13133571Y-16966429D02*
X13105000Y-16980714D01*
X13047857Y-16980714D01*
X13019286Y-16966429D01*
X13005000Y-16952143D01*
X12990714Y-16923572D01*
X12990714Y-16837857D01*
X13005000Y-16809286D01*
X13019286Y-16795000D01*
X13047857Y-16780714D01*
X13105000Y-16780714D01*
X13133571Y-16795000D01*
X13247857Y-17095000D02*
X13262143Y-17080714D01*
X13290714Y-17037857D01*
X13305000Y-17009286D01*
X13319286Y-16966429D01*
X13333571Y-16895000D01*
X13333571Y-16837857D01*
X13319286Y-16766429D01*
X13305000Y-16723571D01*
X13290714Y-16695000D01*
X13262143Y-16652143D01*
X13247857Y-16637857D01*
X3790000Y-17241000D02*
G75*
G03*
X3790000Y-17241000I-110000J0D01*
G01*
X4062143Y-17105286D02*
X4076428Y-17091000D01*
X4105000Y-17076714D01*
X4176428Y-17076714D01*
X4205000Y-17091000D01*
X4219286Y-17105286D01*
X4233571Y-17133857D01*
X4233571Y-17162429D01*
X4219286Y-17205286D01*
X4047857Y-17376714D01*
X4233571Y-17376714D01*
X4362143Y-17348143D02*
X4376428Y-17362429D01*
X4362143Y-17376714D01*
X4347857Y-17362429D01*
X4362143Y-17348143D01*
X4362143Y-17376714D01*
X4490714Y-17105286D02*
X4505000Y-17091000D01*
X4533571Y-17076714D01*
X4605000Y-17076714D01*
X4633571Y-17091000D01*
X4647857Y-17105286D01*
X4662143Y-17133857D01*
X4662143Y-17162429D01*
X4647857Y-17205286D01*
X4476428Y-17376714D01*
X4662143Y-17376714D01*
X4847857Y-17076714D02*
X4876428Y-17076714D01*
X4905000Y-17091000D01*
X4919286Y-17105286D01*
X4933571Y-17133857D01*
X4947857Y-17191000D01*
X4947857Y-17262429D01*
X4933571Y-17319572D01*
X4919286Y-17348143D01*
X4905000Y-17362429D01*
X4876428Y-17376714D01*
X4847857Y-17376714D01*
X4819286Y-17362429D01*
X4805000Y-17348143D01*
X4790714Y-17319572D01*
X4776428Y-17262429D01*
X4776428Y-17191000D01*
X4790714Y-17133857D01*
X4805000Y-17105286D01*
X4819286Y-17091000D01*
X4847857Y-17076714D01*
X5076428Y-17376714D02*
X5076428Y-17176714D01*
X5076428Y-17205286D02*
X5090714Y-17191000D01*
X5119286Y-17176714D01*
X5162143Y-17176714D01*
X5190714Y-17191000D01*
X5205000Y-17219572D01*
X5205000Y-17376714D01*
X5205000Y-17219572D02*
X5219286Y-17191000D01*
X5247857Y-17176714D01*
X5290714Y-17176714D01*
X5319286Y-17191000D01*
X5333571Y-17219572D01*
X5333571Y-17376714D01*
X5476428Y-17376714D02*
X5476428Y-17176714D01*
X5476428Y-17205286D02*
X5490714Y-17191000D01*
X5519286Y-17176714D01*
X5562143Y-17176714D01*
X5590714Y-17191000D01*
X5605000Y-17219572D01*
X5605000Y-17376714D01*
X5605000Y-17219572D02*
X5619286Y-17191000D01*
X5647857Y-17176714D01*
X5690714Y-17176714D01*
X5719286Y-17191000D01*
X5733571Y-17219572D01*
X5733571Y-17376714D01*
X6319286Y-17062429D02*
X6062143Y-17448143D01*
X6705000Y-17076714D02*
X6733571Y-17076714D01*
X6762143Y-17091000D01*
X6776428Y-17105286D01*
X6790714Y-17133857D01*
X6805000Y-17191000D01*
X6805000Y-17262429D01*
X6790714Y-17319572D01*
X6776428Y-17348143D01*
X6762143Y-17362429D01*
X6733571Y-17376714D01*
X6705000Y-17376714D01*
X6676428Y-17362429D01*
X6662143Y-17348143D01*
X6647857Y-17319572D01*
X6633571Y-17262429D01*
X6633571Y-17191000D01*
X6647857Y-17133857D01*
X6662143Y-17105286D01*
X6676428Y-17091000D01*
X6705000Y-17076714D01*
X6933571Y-17348143D02*
X6947857Y-17362429D01*
X6933571Y-17376714D01*
X6919286Y-17362429D01*
X6933571Y-17348143D01*
X6933571Y-17376714D01*
X7133571Y-17076714D02*
X7162143Y-17076714D01*
X7190714Y-17091000D01*
X7205000Y-17105286D01*
X7219286Y-17133857D01*
X7233571Y-17191000D01*
X7233571Y-17262429D01*
X7219286Y-17319572D01*
X7205000Y-17348143D01*
X7190714Y-17362429D01*
X7162143Y-17376714D01*
X7133571Y-17376714D01*
X7105000Y-17362429D01*
X7090714Y-17348143D01*
X7076428Y-17319572D01*
X7062143Y-17262429D01*
X7062143Y-17191000D01*
X7076428Y-17133857D01*
X7090714Y-17105286D01*
X7105000Y-17091000D01*
X7133571Y-17076714D01*
X7405000Y-17205286D02*
X7376428Y-17191000D01*
X7362143Y-17176714D01*
X7347857Y-17148143D01*
X7347857Y-17133857D01*
X7362143Y-17105286D01*
X7376428Y-17091000D01*
X7405000Y-17076714D01*
X7462143Y-17076714D01*
X7490714Y-17091000D01*
X7505000Y-17105286D01*
X7519286Y-17133857D01*
X7519286Y-17148143D01*
X7505000Y-17176714D01*
X7490714Y-17191000D01*
X7462143Y-17205286D01*
X7405000Y-17205286D01*
X7376428Y-17219572D01*
X7362143Y-17233857D01*
X7347857Y-17262429D01*
X7347857Y-17319572D01*
X7362143Y-17348143D01*
X7376428Y-17362429D01*
X7405000Y-17376714D01*
X7462143Y-17376714D01*
X7490714Y-17362429D01*
X7505000Y-17348143D01*
X7519286Y-17319572D01*
X7519286Y-17262429D01*
X7505000Y-17233857D01*
X7490714Y-17219572D01*
X7462143Y-17205286D01*
X7619286Y-17076714D02*
X7819286Y-17076714D01*
X7690714Y-17376714D01*
X7919286Y-17076714D02*
X7919286Y-17133857D01*
X8033571Y-17076714D02*
X8033571Y-17133857D01*
X8476428Y-17491000D02*
X8462143Y-17476714D01*
X8433571Y-17433857D01*
X8419286Y-17405286D01*
X8405000Y-17362429D01*
X8390714Y-17291000D01*
X8390714Y-17233857D01*
X8405000Y-17162429D01*
X8419286Y-17119572D01*
X8433571Y-17091000D01*
X8462143Y-17048143D01*
X8476428Y-17033857D01*
X8747857Y-17376714D02*
X8576428Y-17376714D01*
X8662143Y-17376714D02*
X8662143Y-17076714D01*
X8633571Y-17119572D01*
X8605000Y-17148143D01*
X8576428Y-17162429D01*
X8933571Y-17076714D02*
X8962143Y-17076714D01*
X8990714Y-17091000D01*
X9005000Y-17105286D01*
X9019286Y-17133857D01*
X9033571Y-17191000D01*
X9033571Y-17262429D01*
X9019286Y-17319572D01*
X9005000Y-17348143D01*
X8990714Y-17362429D01*
X8962143Y-17376714D01*
X8933571Y-17376714D01*
X8905000Y-17362429D01*
X8890714Y-17348143D01*
X8876428Y-17319572D01*
X8862143Y-17262429D01*
X8862143Y-17191000D01*
X8876428Y-17133857D01*
X8890714Y-17105286D01*
X8905000Y-17091000D01*
X8933571Y-17076714D01*
X9390714Y-17376714D02*
X9390714Y-17076714D01*
X9519286Y-17376714D02*
X9519286Y-17219572D01*
X9505000Y-17191000D01*
X9476428Y-17176714D01*
X9433571Y-17176714D01*
X9405000Y-17191000D01*
X9390714Y-17205286D01*
X9705000Y-17376714D02*
X9676428Y-17362429D01*
X9662143Y-17348143D01*
X9647857Y-17319572D01*
X9647857Y-17233857D01*
X9662143Y-17205286D01*
X9676428Y-17191000D01*
X9705000Y-17176714D01*
X9747857Y-17176714D01*
X9776428Y-17191000D01*
X9790714Y-17205286D01*
X9805000Y-17233857D01*
X9805000Y-17319572D01*
X9790714Y-17348143D01*
X9776428Y-17362429D01*
X9747857Y-17376714D01*
X9705000Y-17376714D01*
X9976428Y-17376714D02*
X9947857Y-17362429D01*
X9933571Y-17333857D01*
X9933571Y-17076714D01*
X10205000Y-17362429D02*
X10176428Y-17376714D01*
X10119286Y-17376714D01*
X10090714Y-17362429D01*
X10076428Y-17333857D01*
X10076428Y-17219572D01*
X10090714Y-17191000D01*
X10119286Y-17176714D01*
X10176428Y-17176714D01*
X10205000Y-17191000D01*
X10219286Y-17219572D01*
X10219286Y-17248143D01*
X10076428Y-17276714D01*
X10333571Y-17362429D02*
X10362143Y-17376714D01*
X10419286Y-17376714D01*
X10447857Y-17362429D01*
X10462143Y-17333857D01*
X10462143Y-17319572D01*
X10447857Y-17291000D01*
X10419286Y-17276714D01*
X10376428Y-17276714D01*
X10347857Y-17262429D01*
X10333571Y-17233857D01*
X10333571Y-17219572D01*
X10347857Y-17191000D01*
X10376428Y-17176714D01*
X10419286Y-17176714D01*
X10447857Y-17191000D01*
X10562143Y-17491000D02*
X10576428Y-17476714D01*
X10605000Y-17433857D01*
X10619286Y-17405286D01*
X10633571Y-17362429D01*
X10647857Y-17291000D01*
X10647857Y-17233857D01*
X10633571Y-17162429D01*
X10619286Y-17119572D01*
X10605000Y-17091000D01*
X10576428Y-17048143D01*
X10562143Y-17033857D01*
X11105000Y-17491000D02*
X11090714Y-17476714D01*
X11062143Y-17433857D01*
X11047857Y-17405286D01*
X11033571Y-17362429D01*
X11019286Y-17291000D01*
X11019286Y-17233857D01*
X11033571Y-17162429D01*
X11047857Y-17119572D01*
X11062143Y-17091000D01*
X11090714Y-17048143D01*
X11105000Y-17033857D01*
X11219286Y-17176714D02*
X11219286Y-17376714D01*
X11219286Y-17205286D02*
X11233571Y-17191000D01*
X11262143Y-17176714D01*
X11305000Y-17176714D01*
X11333571Y-17191000D01*
X11347857Y-17219572D01*
X11347857Y-17376714D01*
X11533571Y-17376714D02*
X11505000Y-17362429D01*
X11490714Y-17348143D01*
X11476428Y-17319572D01*
X11476428Y-17233857D01*
X11490714Y-17205286D01*
X11505000Y-17191000D01*
X11533571Y-17176714D01*
X11576428Y-17176714D01*
X11605000Y-17191000D01*
X11619286Y-17205286D01*
X11633571Y-17233857D01*
X11633571Y-17319572D01*
X11619286Y-17348143D01*
X11605000Y-17362429D01*
X11576428Y-17376714D01*
X11533571Y-17376714D01*
X11719286Y-17176714D02*
X11833571Y-17176714D01*
X11762143Y-17076714D02*
X11762143Y-17333857D01*
X11776428Y-17362429D01*
X11805000Y-17376714D01*
X11833571Y-17376714D01*
X12162143Y-17176714D02*
X12162143Y-17476714D01*
X12162143Y-17191000D02*
X12190714Y-17176714D01*
X12247857Y-17176714D01*
X12276428Y-17191000D01*
X12290714Y-17205286D01*
X12305000Y-17233857D01*
X12305000Y-17319572D01*
X12290714Y-17348143D01*
X12276428Y-17362429D01*
X12247857Y-17376714D01*
X12190714Y-17376714D01*
X12162143Y-17362429D01*
X12476428Y-17376714D02*
X12447857Y-17362429D01*
X12433571Y-17333857D01*
X12433571Y-17076714D01*
X12719286Y-17376714D02*
X12719286Y-17219572D01*
X12705000Y-17191000D01*
X12676428Y-17176714D01*
X12619286Y-17176714D01*
X12590714Y-17191000D01*
X12719286Y-17362429D02*
X12690714Y-17376714D01*
X12619286Y-17376714D01*
X12590714Y-17362429D01*
X12576428Y-17333857D01*
X12576428Y-17305286D01*
X12590714Y-17276714D01*
X12619286Y-17262429D01*
X12690714Y-17262429D01*
X12719286Y-17248143D01*
X12819286Y-17176714D02*
X12933571Y-17176714D01*
X12862143Y-17076714D02*
X12862143Y-17333857D01*
X12876428Y-17362429D01*
X12905000Y-17376714D01*
X12933571Y-17376714D01*
X13147857Y-17362429D02*
X13119286Y-17376714D01*
X13062143Y-17376714D01*
X13033571Y-17362429D01*
X13019286Y-17333857D01*
X13019286Y-17219572D01*
X13033571Y-17191000D01*
X13062143Y-17176714D01*
X13119286Y-17176714D01*
X13147857Y-17191000D01*
X13162143Y-17219572D01*
X13162143Y-17248143D01*
X13019286Y-17276714D01*
X13419286Y-17376714D02*
X13419286Y-17076714D01*
X13419286Y-17362429D02*
X13390714Y-17376714D01*
X13333571Y-17376714D01*
X13305000Y-17362429D01*
X13290714Y-17348143D01*
X13276428Y-17319572D01*
X13276428Y-17233857D01*
X13290714Y-17205286D01*
X13305000Y-17191000D01*
X13333571Y-17176714D01*
X13390714Y-17176714D01*
X13419286Y-17191000D01*
X13533571Y-17491000D02*
X13547857Y-17476714D01*
X13576428Y-17433857D01*
X13590714Y-17405286D01*
X13605000Y-17362429D01*
X13619286Y-17291000D01*
X13619286Y-17233857D01*
X13605000Y-17162429D01*
X13590714Y-17119572D01*
X13576428Y-17091000D01*
X13547857Y-17048143D01*
X13533571Y-17033857D01*
X3630000Y-17477000D02*
X3630000Y-17797000D01*
X3470000Y-17637000D02*
X3790000Y-17637000D01*
X4047857Y-17472714D02*
X4233571Y-17472714D01*
X4133571Y-17587000D01*
X4176428Y-17587000D01*
X4205000Y-17601286D01*
X4219286Y-17615572D01*
X4233571Y-17644143D01*
X4233571Y-17715572D01*
X4219286Y-17744143D01*
X4205000Y-17758429D01*
X4176428Y-17772714D01*
X4090714Y-17772714D01*
X4062143Y-17758429D01*
X4047857Y-17744143D01*
X4362143Y-17744143D02*
X4376428Y-17758429D01*
X4362143Y-17772714D01*
X4347857Y-17758429D01*
X4362143Y-17744143D01*
X4362143Y-17772714D01*
X4490714Y-17501286D02*
X4505000Y-17487000D01*
X4533571Y-17472714D01*
X4605000Y-17472714D01*
X4633571Y-17487000D01*
X4647857Y-17501286D01*
X4662143Y-17529857D01*
X4662143Y-17558429D01*
X4647857Y-17601286D01*
X4476428Y-17772714D01*
X4662143Y-17772714D01*
X4847857Y-17472714D02*
X4876428Y-17472714D01*
X4905000Y-17487000D01*
X4919286Y-17501286D01*
X4933571Y-17529857D01*
X4947857Y-17587000D01*
X4947857Y-17658429D01*
X4933571Y-17715572D01*
X4919286Y-17744143D01*
X4905000Y-17758429D01*
X4876428Y-17772714D01*
X4847857Y-17772714D01*
X4819286Y-17758429D01*
X4805000Y-17744143D01*
X4790714Y-17715572D01*
X4776428Y-17658429D01*
X4776428Y-17587000D01*
X4790714Y-17529857D01*
X4805000Y-17501286D01*
X4819286Y-17487000D01*
X4847857Y-17472714D01*
X5076428Y-17772714D02*
X5076428Y-17572714D01*
X5076428Y-17601286D02*
X5090714Y-17587000D01*
X5119286Y-17572714D01*
X5162143Y-17572714D01*
X5190714Y-17587000D01*
X5205000Y-17615572D01*
X5205000Y-17772714D01*
X5205000Y-17615572D02*
X5219286Y-17587000D01*
X5247857Y-17572714D01*
X5290714Y-17572714D01*
X5319286Y-17587000D01*
X5333571Y-17615572D01*
X5333571Y-17772714D01*
X5476428Y-17772714D02*
X5476428Y-17572714D01*
X5476428Y-17601286D02*
X5490714Y-17587000D01*
X5519286Y-17572714D01*
X5562143Y-17572714D01*
X5590714Y-17587000D01*
X5605000Y-17615572D01*
X5605000Y-17772714D01*
X5605000Y-17615572D02*
X5619286Y-17587000D01*
X5647857Y-17572714D01*
X5690714Y-17572714D01*
X5719286Y-17587000D01*
X5733571Y-17615572D01*
X5733571Y-17772714D01*
X6319286Y-17458429D02*
X6062143Y-17844143D01*
X6705000Y-17472714D02*
X6733571Y-17472714D01*
X6762143Y-17487000D01*
X6776428Y-17501286D01*
X6790714Y-17529857D01*
X6805000Y-17587000D01*
X6805000Y-17658429D01*
X6790714Y-17715572D01*
X6776428Y-17744143D01*
X6762143Y-17758429D01*
X6733571Y-17772714D01*
X6705000Y-17772714D01*
X6676428Y-17758429D01*
X6662143Y-17744143D01*
X6647857Y-17715572D01*
X6633571Y-17658429D01*
X6633571Y-17587000D01*
X6647857Y-17529857D01*
X6662143Y-17501286D01*
X6676428Y-17487000D01*
X6705000Y-17472714D01*
X6933571Y-17744143D02*
X6947857Y-17758429D01*
X6933571Y-17772714D01*
X6919286Y-17758429D01*
X6933571Y-17744143D01*
X6933571Y-17772714D01*
X7233571Y-17772714D02*
X7062143Y-17772714D01*
X7147857Y-17772714D02*
X7147857Y-17472714D01*
X7119286Y-17515572D01*
X7090714Y-17544143D01*
X7062143Y-17558429D01*
X7347857Y-17501286D02*
X7362143Y-17487000D01*
X7390714Y-17472714D01*
X7462143Y-17472714D01*
X7490714Y-17487000D01*
X7505000Y-17501286D01*
X7519286Y-17529857D01*
X7519286Y-17558429D01*
X7505000Y-17601286D01*
X7333571Y-17772714D01*
X7519286Y-17772714D01*
X7776428Y-17472714D02*
X7719286Y-17472714D01*
X7690714Y-17487000D01*
X7676428Y-17501286D01*
X7647857Y-17544143D01*
X7633571Y-17601286D01*
X7633571Y-17715572D01*
X7647857Y-17744143D01*
X7662143Y-17758429D01*
X7690714Y-17772714D01*
X7747857Y-17772714D01*
X7776428Y-17758429D01*
X7790714Y-17744143D01*
X7805000Y-17715572D01*
X7805000Y-17644143D01*
X7790714Y-17615572D01*
X7776428Y-17601286D01*
X7747857Y-17587000D01*
X7690714Y-17587000D01*
X7662143Y-17601286D01*
X7647857Y-17615572D01*
X7633571Y-17644143D01*
X7919286Y-17472714D02*
X7919286Y-17529857D01*
X8033571Y-17472714D02*
X8033571Y-17529857D01*
X8476428Y-17887000D02*
X8462143Y-17872714D01*
X8433571Y-17829857D01*
X8419286Y-17801286D01*
X8405000Y-17758429D01*
X8390714Y-17687000D01*
X8390714Y-17629857D01*
X8405000Y-17558429D01*
X8419286Y-17515572D01*
X8433571Y-17487000D01*
X8462143Y-17444143D01*
X8476428Y-17429857D01*
X8576428Y-17501286D02*
X8590714Y-17487000D01*
X8619286Y-17472714D01*
X8690714Y-17472714D01*
X8719286Y-17487000D01*
X8733571Y-17501286D01*
X8747857Y-17529857D01*
X8747857Y-17558429D01*
X8733571Y-17601286D01*
X8562143Y-17772714D01*
X8747857Y-17772714D01*
X9105000Y-17772714D02*
X9105000Y-17472714D01*
X9233571Y-17772714D02*
X9233571Y-17615572D01*
X9219286Y-17587000D01*
X9190714Y-17572714D01*
X9147857Y-17572714D01*
X9119286Y-17587000D01*
X9105000Y-17601286D01*
X9419286Y-17772714D02*
X9390714Y-17758429D01*
X9376428Y-17744143D01*
X9362143Y-17715572D01*
X9362143Y-17629857D01*
X9376428Y-17601286D01*
X9390714Y-17587000D01*
X9419286Y-17572714D01*
X9462143Y-17572714D01*
X9490714Y-17587000D01*
X9505000Y-17601286D01*
X9519286Y-17629857D01*
X9519286Y-17715572D01*
X9505000Y-17744143D01*
X9490714Y-17758429D01*
X9462143Y-17772714D01*
X9419286Y-17772714D01*
X9690714Y-17772714D02*
X9662143Y-17758429D01*
X9647857Y-17729857D01*
X9647857Y-17472714D01*
X9919286Y-17758429D02*
X9890714Y-17772714D01*
X9833571Y-17772714D01*
X9805000Y-17758429D01*
X9790714Y-17729857D01*
X9790714Y-17615572D01*
X9805000Y-17587000D01*
X9833571Y-17572714D01*
X9890714Y-17572714D01*
X9919286Y-17587000D01*
X9933571Y-17615572D01*
X9933571Y-17644143D01*
X9790714Y-17672714D01*
X10047857Y-17758429D02*
X10076428Y-17772714D01*
X10133571Y-17772714D01*
X10162143Y-17758429D01*
X10176428Y-17729857D01*
X10176428Y-17715572D01*
X10162143Y-17687000D01*
X10133571Y-17672714D01*
X10090714Y-17672714D01*
X10062143Y-17658429D01*
X10047857Y-17629857D01*
X10047857Y-17615572D01*
X10062143Y-17587000D01*
X10090714Y-17572714D01*
X10133571Y-17572714D01*
X10162143Y-17587000D01*
X10276428Y-17887000D02*
X10290714Y-17872714D01*
X10319286Y-17829857D01*
X10333571Y-17801286D01*
X10347857Y-17758429D01*
X10362143Y-17687000D01*
X10362143Y-17629857D01*
X10347857Y-17558429D01*
X10333571Y-17515572D01*
X10319286Y-17487000D01*
X10290714Y-17444143D01*
X10276428Y-17429857D01*
X10819286Y-17887000D02*
X10805000Y-17872714D01*
X10776428Y-17829857D01*
X10762143Y-17801286D01*
X10747857Y-17758429D01*
X10733571Y-17687000D01*
X10733571Y-17629857D01*
X10747857Y-17558429D01*
X10762143Y-17515572D01*
X10776428Y-17487000D01*
X10805000Y-17444143D01*
X10819286Y-17429857D01*
X10933571Y-17572714D02*
X10933571Y-17772714D01*
X10933571Y-17601286D02*
X10947857Y-17587000D01*
X10976428Y-17572714D01*
X11019286Y-17572714D01*
X11047857Y-17587000D01*
X11062143Y-17615572D01*
X11062143Y-17772714D01*
X11247857Y-17772714D02*
X11219286Y-17758429D01*
X11205000Y-17744143D01*
X11190714Y-17715572D01*
X11190714Y-17629857D01*
X11205000Y-17601286D01*
X11219286Y-17587000D01*
X11247857Y-17572714D01*
X11290714Y-17572714D01*
X11319286Y-17587000D01*
X11333571Y-17601286D01*
X11347857Y-17629857D01*
X11347857Y-17715572D01*
X11333571Y-17744143D01*
X11319286Y-17758429D01*
X11290714Y-17772714D01*
X11247857Y-17772714D01*
X11433571Y-17572714D02*
X11547857Y-17572714D01*
X11476428Y-17472714D02*
X11476428Y-17729857D01*
X11490714Y-17758429D01*
X11519286Y-17772714D01*
X11547857Y-17772714D01*
X11876428Y-17572714D02*
X11876428Y-17872714D01*
X11876428Y-17587000D02*
X11905000Y-17572714D01*
X11962143Y-17572714D01*
X11990714Y-17587000D01*
X12005000Y-17601286D01*
X12019286Y-17629857D01*
X12019286Y-17715572D01*
X12005000Y-17744143D01*
X11990714Y-17758429D01*
X11962143Y-17772714D01*
X11905000Y-17772714D01*
X11876428Y-17758429D01*
X12190714Y-17772714D02*
X12162143Y-17758429D01*
X12147857Y-17729857D01*
X12147857Y-17472714D01*
X12433571Y-17772714D02*
X12433571Y-17615572D01*
X12419286Y-17587000D01*
X12390714Y-17572714D01*
X12333571Y-17572714D01*
X12305000Y-17587000D01*
X12433571Y-17758429D02*
X12405000Y-17772714D01*
X12333571Y-17772714D01*
X12305000Y-17758429D01*
X12290714Y-17729857D01*
X12290714Y-17701286D01*
X12305000Y-17672714D01*
X12333571Y-17658429D01*
X12405000Y-17658429D01*
X12433571Y-17644143D01*
X12533571Y-17572714D02*
X12647857Y-17572714D01*
X12576428Y-17472714D02*
X12576428Y-17729857D01*
X12590714Y-17758429D01*
X12619286Y-17772714D01*
X12647857Y-17772714D01*
X12862143Y-17758429D02*
X12833571Y-17772714D01*
X12776428Y-17772714D01*
X12747857Y-17758429D01*
X12733571Y-17729857D01*
X12733571Y-17615572D01*
X12747857Y-17587000D01*
X12776428Y-17572714D01*
X12833571Y-17572714D01*
X12862143Y-17587000D01*
X12876428Y-17615572D01*
X12876428Y-17644143D01*
X12733571Y-17672714D01*
X13133571Y-17772714D02*
X13133571Y-17472714D01*
X13133571Y-17758429D02*
X13105000Y-17772714D01*
X13047857Y-17772714D01*
X13019286Y-17758429D01*
X13005000Y-17744143D01*
X12990714Y-17715572D01*
X12990714Y-17629857D01*
X13005000Y-17601286D01*
X13019286Y-17587000D01*
X13047857Y-17572714D01*
X13105000Y-17572714D01*
X13133571Y-17587000D01*
X13247857Y-17887000D02*
X13262143Y-17872714D01*
X13290714Y-17829857D01*
X13305000Y-17801286D01*
X13319286Y-17758429D01*
X13333571Y-17687000D01*
X13333571Y-17629857D01*
X13319286Y-17558429D01*
X13305000Y-17515572D01*
X13290714Y-17487000D01*
X13262143Y-17444143D01*
X13247857Y-17429857D01*
X3741674Y-18203674D02*
X3741674Y-17970326D01*
X3508326Y-17970326D01*
X3508326Y-18203674D01*
X3741674Y-18203674D01*
X4047857Y-17922714D02*
X4233571Y-17922714D01*
X4133571Y-18037000D01*
X4176428Y-18037000D01*
X4205000Y-18051286D01*
X4219286Y-18065572D01*
X4233571Y-18094143D01*
X4233571Y-18165572D01*
X4219286Y-18194143D01*
X4205000Y-18208429D01*
X4176428Y-18222714D01*
X4090714Y-18222714D01*
X4062143Y-18208429D01*
X4047857Y-18194143D01*
X4362143Y-18194143D02*
X4376428Y-18208429D01*
X4362143Y-18222714D01*
X4347857Y-18208429D01*
X4362143Y-18194143D01*
X4362143Y-18222714D01*
X4476428Y-17922714D02*
X4662143Y-17922714D01*
X4562143Y-18037000D01*
X4605000Y-18037000D01*
X4633571Y-18051286D01*
X4647857Y-18065572D01*
X4662143Y-18094143D01*
X4662143Y-18165572D01*
X4647857Y-18194143D01*
X4633571Y-18208429D01*
X4605000Y-18222714D01*
X4519286Y-18222714D01*
X4490714Y-18208429D01*
X4476428Y-18194143D01*
X4847857Y-17922714D02*
X4876428Y-17922714D01*
X4905000Y-17937000D01*
X4919286Y-17951286D01*
X4933571Y-17979857D01*
X4947857Y-18037000D01*
X4947857Y-18108429D01*
X4933571Y-18165572D01*
X4919286Y-18194143D01*
X4905000Y-18208429D01*
X4876428Y-18222714D01*
X4847857Y-18222714D01*
X4819286Y-18208429D01*
X4805000Y-18194143D01*
X4790714Y-18165572D01*
X4776428Y-18108429D01*
X4776428Y-18037000D01*
X4790714Y-17979857D01*
X4805000Y-17951286D01*
X4819286Y-17937000D01*
X4847857Y-17922714D01*
X5076428Y-18222714D02*
X5076428Y-18022714D01*
X5076428Y-18051286D02*
X5090714Y-18037000D01*
X5119286Y-18022714D01*
X5162143Y-18022714D01*
X5190714Y-18037000D01*
X5205000Y-18065572D01*
X5205000Y-18222714D01*
X5205000Y-18065572D02*
X5219286Y-18037000D01*
X5247857Y-18022714D01*
X5290714Y-18022714D01*
X5319286Y-18037000D01*
X5333571Y-18065572D01*
X5333571Y-18222714D01*
X5476428Y-18222714D02*
X5476428Y-18022714D01*
X5476428Y-18051286D02*
X5490714Y-18037000D01*
X5519286Y-18022714D01*
X5562143Y-18022714D01*
X5590714Y-18037000D01*
X5605000Y-18065572D01*
X5605000Y-18222714D01*
X5605000Y-18065572D02*
X5619286Y-18037000D01*
X5647857Y-18022714D01*
X5690714Y-18022714D01*
X5719286Y-18037000D01*
X5733571Y-18065572D01*
X5733571Y-18222714D01*
X6319286Y-17908429D02*
X6062143Y-18294143D01*
X6705000Y-17922714D02*
X6733571Y-17922714D01*
X6762143Y-17937000D01*
X6776428Y-17951286D01*
X6790714Y-17979857D01*
X6805000Y-18037000D01*
X6805000Y-18108429D01*
X6790714Y-18165572D01*
X6776428Y-18194143D01*
X6762143Y-18208429D01*
X6733571Y-18222714D01*
X6705000Y-18222714D01*
X6676428Y-18208429D01*
X6662143Y-18194143D01*
X6647857Y-18165572D01*
X6633571Y-18108429D01*
X6633571Y-18037000D01*
X6647857Y-17979857D01*
X6662143Y-17951286D01*
X6676428Y-17937000D01*
X6705000Y-17922714D01*
X6933571Y-18194143D02*
X6947857Y-18208429D01*
X6933571Y-18222714D01*
X6919286Y-18208429D01*
X6933571Y-18194143D01*
X6933571Y-18222714D01*
X7233571Y-18222714D02*
X7062143Y-18222714D01*
X7147857Y-18222714D02*
X7147857Y-17922714D01*
X7119286Y-17965572D01*
X7090714Y-17994143D01*
X7062143Y-18008429D01*
X7333571Y-17922714D02*
X7519286Y-17922714D01*
X7419286Y-18037000D01*
X7462143Y-18037000D01*
X7490714Y-18051286D01*
X7505000Y-18065572D01*
X7519286Y-18094143D01*
X7519286Y-18165572D01*
X7505000Y-18194143D01*
X7490714Y-18208429D01*
X7462143Y-18222714D01*
X7376428Y-18222714D01*
X7347857Y-18208429D01*
X7333571Y-18194143D01*
X7705000Y-17922714D02*
X7733571Y-17922714D01*
X7762143Y-17937000D01*
X7776428Y-17951286D01*
X7790714Y-17979857D01*
X7805000Y-18037000D01*
X7805000Y-18108429D01*
X7790714Y-18165572D01*
X7776428Y-18194143D01*
X7762143Y-18208429D01*
X7733571Y-18222714D01*
X7705000Y-18222714D01*
X7676428Y-18208429D01*
X7662143Y-18194143D01*
X7647857Y-18165572D01*
X7633571Y-18108429D01*
X7633571Y-18037000D01*
X7647857Y-17979857D01*
X7662143Y-17951286D01*
X7676428Y-17937000D01*
X7705000Y-17922714D01*
X7919286Y-17922714D02*
X7919286Y-17979857D01*
X8033571Y-17922714D02*
X8033571Y-17979857D01*
X8476428Y-18337000D02*
X8462143Y-18322714D01*
X8433571Y-18279857D01*
X8419286Y-18251286D01*
X8405000Y-18208429D01*
X8390714Y-18137000D01*
X8390714Y-18079857D01*
X8405000Y-18008429D01*
X8419286Y-17965572D01*
X8433571Y-17937000D01*
X8462143Y-17894143D01*
X8476428Y-17879857D01*
X8576428Y-17951286D02*
X8590714Y-17937000D01*
X8619286Y-17922714D01*
X8690714Y-17922714D01*
X8719286Y-17937000D01*
X8733571Y-17951286D01*
X8747857Y-17979857D01*
X8747857Y-18008429D01*
X8733571Y-18051286D01*
X8562143Y-18222714D01*
X8747857Y-18222714D01*
X9105000Y-18222714D02*
X9105000Y-17922714D01*
X9233571Y-18222714D02*
X9233571Y-18065572D01*
X9219286Y-18037000D01*
X9190714Y-18022714D01*
X9147857Y-18022714D01*
X9119286Y-18037000D01*
X9105000Y-18051286D01*
X9419286Y-18222714D02*
X9390714Y-18208429D01*
X9376428Y-18194143D01*
X9362143Y-18165572D01*
X9362143Y-18079857D01*
X9376428Y-18051286D01*
X9390714Y-18037000D01*
X9419286Y-18022714D01*
X9462143Y-18022714D01*
X9490714Y-18037000D01*
X9505000Y-18051286D01*
X9519286Y-18079857D01*
X9519286Y-18165572D01*
X9505000Y-18194143D01*
X9490714Y-18208429D01*
X9462143Y-18222714D01*
X9419286Y-18222714D01*
X9690714Y-18222714D02*
X9662143Y-18208429D01*
X9647857Y-18179857D01*
X9647857Y-17922714D01*
X9919286Y-18208429D02*
X9890714Y-18222714D01*
X9833571Y-18222714D01*
X9805000Y-18208429D01*
X9790714Y-18179857D01*
X9790714Y-18065572D01*
X9805000Y-18037000D01*
X9833571Y-18022714D01*
X9890714Y-18022714D01*
X9919286Y-18037000D01*
X9933571Y-18065572D01*
X9933571Y-18094143D01*
X9790714Y-18122714D01*
X10047857Y-18208429D02*
X10076428Y-18222714D01*
X10133571Y-18222714D01*
X10162143Y-18208429D01*
X10176428Y-18179857D01*
X10176428Y-18165572D01*
X10162143Y-18137000D01*
X10133571Y-18122714D01*
X10090714Y-18122714D01*
X10062143Y-18108429D01*
X10047857Y-18079857D01*
X10047857Y-18065572D01*
X10062143Y-18037000D01*
X10090714Y-18022714D01*
X10133571Y-18022714D01*
X10162143Y-18037000D01*
X10276428Y-18337000D02*
X10290714Y-18322714D01*
X10319286Y-18279857D01*
X10333571Y-18251286D01*
X10347857Y-18208429D01*
X10362143Y-18137000D01*
X10362143Y-18079857D01*
X10347857Y-18008429D01*
X10333571Y-17965572D01*
X10319286Y-17937000D01*
X10290714Y-17894143D01*
X10276428Y-17879857D01*
X10819286Y-18337000D02*
X10805000Y-18322714D01*
X10776428Y-18279857D01*
X10762143Y-18251286D01*
X10747857Y-18208429D01*
X10733571Y-18137000D01*
X10733571Y-18079857D01*
X10747857Y-18008429D01*
X10762143Y-17965572D01*
X10776428Y-17937000D01*
X10805000Y-17894143D01*
X10819286Y-17879857D01*
X10933571Y-18022714D02*
X10933571Y-18222714D01*
X10933571Y-18051286D02*
X10947857Y-18037000D01*
X10976428Y-18022714D01*
X11019286Y-18022714D01*
X11047857Y-18037000D01*
X11062143Y-18065572D01*
X11062143Y-18222714D01*
X11247857Y-18222714D02*
X11219286Y-18208429D01*
X11205000Y-18194143D01*
X11190714Y-18165572D01*
X11190714Y-18079857D01*
X11205000Y-18051286D01*
X11219286Y-18037000D01*
X11247857Y-18022714D01*
X11290714Y-18022714D01*
X11319286Y-18037000D01*
X11333571Y-18051286D01*
X11347857Y-18079857D01*
X11347857Y-18165572D01*
X11333571Y-18194143D01*
X11319286Y-18208429D01*
X11290714Y-18222714D01*
X11247857Y-18222714D01*
X11433571Y-18022714D02*
X11547857Y-18022714D01*
X11476428Y-17922714D02*
X11476428Y-18179857D01*
X11490714Y-18208429D01*
X11519286Y-18222714D01*
X11547857Y-18222714D01*
X11876428Y-18022714D02*
X11876428Y-18322714D01*
X11876428Y-18037000D02*
X11905000Y-18022714D01*
X11962143Y-18022714D01*
X11990714Y-18037000D01*
X12005000Y-18051286D01*
X12019286Y-18079857D01*
X12019286Y-18165572D01*
X12005000Y-18194143D01*
X11990714Y-18208429D01*
X11962143Y-18222714D01*
X11905000Y-18222714D01*
X11876428Y-18208429D01*
X12190714Y-18222714D02*
X12162143Y-18208429D01*
X12147857Y-18179857D01*
X12147857Y-17922714D01*
X12433571Y-18222714D02*
X12433571Y-18065572D01*
X12419286Y-18037000D01*
X12390714Y-18022714D01*
X12333571Y-18022714D01*
X12305000Y-18037000D01*
X12433571Y-18208429D02*
X12405000Y-18222714D01*
X12333571Y-18222714D01*
X12305000Y-18208429D01*
X12290714Y-18179857D01*
X12290714Y-18151286D01*
X12305000Y-18122714D01*
X12333571Y-18108429D01*
X12405000Y-18108429D01*
X12433571Y-18094143D01*
X12533571Y-18022714D02*
X12647857Y-18022714D01*
X12576428Y-17922714D02*
X12576428Y-18179857D01*
X12590714Y-18208429D01*
X12619286Y-18222714D01*
X12647857Y-18222714D01*
X12862143Y-18208429D02*
X12833571Y-18222714D01*
X12776428Y-18222714D01*
X12747857Y-18208429D01*
X12733571Y-18179857D01*
X12733571Y-18065572D01*
X12747857Y-18037000D01*
X12776428Y-18022714D01*
X12833571Y-18022714D01*
X12862143Y-18037000D01*
X12876428Y-18065572D01*
X12876428Y-18094143D01*
X12733571Y-18122714D01*
X13133571Y-18222714D02*
X13133571Y-17922714D01*
X13133571Y-18208429D02*
X13105000Y-18222714D01*
X13047857Y-18222714D01*
X13019286Y-18208429D01*
X13005000Y-18194143D01*
X12990714Y-18165572D01*
X12990714Y-18079857D01*
X13005000Y-18051286D01*
X13019286Y-18037000D01*
X13047857Y-18022714D01*
X13105000Y-18022714D01*
X13133571Y-18037000D01*
X13247857Y-18337000D02*
X13262143Y-18322714D01*
X13290714Y-18279857D01*
X13305000Y-18251286D01*
X13319286Y-18208429D01*
X13333571Y-18137000D01*
X13333571Y-18079857D01*
X13319286Y-18008429D01*
X13305000Y-17965572D01*
X13290714Y-17937000D01*
X13262143Y-17894143D01*
X13247857Y-17879857D01*
M02*
