M48
; DRILL file {KiCad (5.1.6)-1} date 04/11/21 16:09:22
; FORMAT={-:-/ absolute / metric / decimal}
; #@! TF.CreationDate,2021-04-11T16:09:22+02:00
; #@! TF.GenerationSoftware,Kicad,Pcbnew,(5.1.6)-1
; #@! TF.FileFunction,NonPlated,1,2,NPTH
FMAT,2
METRIC
T1C1.850
T2C2.200
T3C3.200
T4C3.300
%
G90
G05
T1
X108.585Y-133.27
X108.585Y-142.32
X91.5Y-133.27
X91.5Y-142.32
X74.295Y-133.27
X74.295Y-142.32
T2
X141.605Y-155.575
X41.91Y-134.62
X59.055Y-155.575
X141.605Y-110.49
X83.185Y-123.825
X83.185Y-146.05
X120.015Y-142.24
X105.41Y-85.725
X41.275Y-80.01
X64.135Y-99.695
T3
X61.0Y-91.72
X61.0Y-125.72
T4
X41.909Y-151.765
X53.341Y-151.765
T0
M30
