%FSLAX45Y45*%
G04 Gerber Fmt 4.5, Leading zero omitted, Abs format (unit mm)*
G04 Created by KiCad (PCBNEW (5.1.6)-1) date 2021-04-11 16:09:23*
%MOMM*%
%LPD*%
G01*
G04 APERTURE LIST*
%TA.AperFunction,Profile*%
%ADD10C,0.200000*%
%TD*%
%ADD11C,0.200000*%
%ADD12C,0.300000*%
G04 APERTURE END LIST*
D10*
X6159500Y-15875000D02*
X6159500Y-14872000D01*
X11938000Y-15875000D02*
X11938000Y-14872000D01*
X14500000Y-15875000D02*
X11938000Y-15875000D01*
X14500000Y-15875000D02*
X14500000Y-14872000D01*
X3800000Y-15875000D02*
X6159500Y-15875000D01*
X9779000Y-14872000D02*
X11938000Y-14872000D01*
X9779000Y-15875000D02*
X9779000Y-14872000D01*
X9779000Y-15875000D02*
X8509000Y-15875000D01*
X8509000Y-15875000D02*
X8509000Y-14872000D01*
X6553200Y-14414500D02*
G75*
G02*
X6261100Y-14414500I-146050J0D01*
G01*
X6261100Y-13525500D02*
G75*
G02*
X6553200Y-13525500I146050J0D01*
G01*
X7192500Y-12382500D02*
G75*
G02*
X6902500Y-12382500I-145000J0D01*
G01*
X6902500Y-9842500D02*
G75*
G02*
X7192500Y-9842500I145000J0D01*
G01*
X4241800Y-8780000D02*
G75*
G02*
X4241800Y-8490000I0J145000D01*
G01*
X7048500Y-8490000D02*
G75*
G02*
X7048500Y-8780000I0J-145000D01*
G01*
X13779500Y-10541000D02*
X13779500Y-6872000D01*
X14500000Y-10541000D02*
X13779500Y-10541000D01*
X6553200Y-13525500D02*
X6553200Y-14414500D01*
X6261100Y-14414500D02*
X6261100Y-13525500D01*
X7192500Y-9842500D02*
X7192500Y-12382500D01*
X6902500Y-12382500D02*
X6902500Y-9842500D01*
X4241800Y-8490000D02*
X7048500Y-8490000D01*
X7048500Y-8780000D02*
X4241800Y-8780000D01*
X3800000Y-6872000D02*
X13779500Y-6872000D01*
X6159500Y-14872000D02*
X8509000Y-14872000D01*
X14500000Y-10541000D02*
X14500000Y-14872000D01*
X3800000Y-6872000D02*
X3800000Y-15875000D01*
D11*
X3917000Y-7028500D02*
X3957000Y-7068500D01*
X3957000Y-7028500D02*
X3917000Y-7068500D01*
X3917000Y-8171500D02*
X3957000Y-8211500D01*
X3957000Y-8171500D02*
X3917000Y-8211500D01*
X3917000Y-10470200D02*
X3957000Y-10510200D01*
X3957000Y-10470200D02*
X3917000Y-10510200D01*
X3917000Y-10648000D02*
X3957000Y-10688000D01*
X3957000Y-10648000D02*
X3917000Y-10688000D01*
X3917000Y-10902000D02*
X3957000Y-10942000D01*
X3957000Y-10902000D02*
X3917000Y-10942000D01*
X3917000Y-11854500D02*
X3957000Y-11894500D01*
X3957000Y-11854500D02*
X3917000Y-11894500D01*
X3917000Y-12743500D02*
X3957000Y-12783500D01*
X3957000Y-12743500D02*
X3917000Y-12783500D01*
X3917000Y-13950000D02*
X3957000Y-13990000D01*
X3957000Y-13950000D02*
X3917000Y-13990000D01*
X3917000Y-15664500D02*
X3957000Y-15704500D01*
X3957000Y-15664500D02*
X3917000Y-15704500D01*
X3980500Y-10203500D02*
X4020500Y-10243500D01*
X4020500Y-10203500D02*
X3980500Y-10243500D01*
X4201000Y-12011500D02*
X4241000Y-12051500D01*
X4241000Y-12011500D02*
X4201000Y-12051500D01*
X4234500Y-11092500D02*
X4274500Y-11132500D01*
X4274500Y-11092500D02*
X4234500Y-11132500D01*
X4361500Y-9124000D02*
X4401500Y-9164000D01*
X4401500Y-9124000D02*
X4361500Y-9164000D01*
X4425000Y-10330500D02*
X4465000Y-10370500D01*
X4465000Y-10330500D02*
X4425000Y-10370500D01*
X4501200Y-9555800D02*
X4541200Y-9595800D01*
X4541200Y-9555800D02*
X4501200Y-9595800D01*
X4526600Y-11359200D02*
X4566600Y-11399200D01*
X4566600Y-11359200D02*
X4526600Y-11399200D01*
X4539300Y-10013000D02*
X4579300Y-10053000D01*
X4579300Y-10013000D02*
X4539300Y-10053000D01*
X4539300Y-10140000D02*
X4579300Y-10180000D01*
X4579300Y-10140000D02*
X4539300Y-10180000D01*
X4552000Y-9124000D02*
X4592000Y-9164000D01*
X4592000Y-9124000D02*
X4552000Y-9164000D01*
X4615500Y-11981500D02*
X4655500Y-12021500D01*
X4655500Y-11981500D02*
X4615500Y-12021500D01*
X4615500Y-13569000D02*
X4655500Y-13609000D01*
X4655500Y-13569000D02*
X4615500Y-13609000D01*
X4628200Y-9555800D02*
X4668200Y-9595800D01*
X4668200Y-9555800D02*
X4628200Y-9595800D01*
X4679000Y-8298500D02*
X4719000Y-8338500D01*
X4719000Y-8298500D02*
X4679000Y-8338500D01*
X4806000Y-10648000D02*
X4846000Y-10688000D01*
X4846000Y-10648000D02*
X4806000Y-10688000D01*
X4806000Y-11092500D02*
X4846000Y-11132500D01*
X4846000Y-11092500D02*
X4806000Y-11132500D01*
X4869500Y-8997000D02*
X4909500Y-9037000D01*
X4909500Y-8997000D02*
X4869500Y-9037000D01*
X4933000Y-13505500D02*
X4973000Y-13545500D01*
X4973000Y-13505500D02*
X4933000Y-13545500D01*
X5060000Y-7346000D02*
X5100000Y-7386000D01*
X5100000Y-7346000D02*
X5060000Y-7386000D01*
X5187000Y-10902000D02*
X5227000Y-10942000D01*
X5227000Y-10902000D02*
X5187000Y-10942000D01*
X5187000Y-11410000D02*
X5227000Y-11450000D01*
X5227000Y-11410000D02*
X5187000Y-11450000D01*
X5314000Y-7346000D02*
X5354000Y-7386000D01*
X5354000Y-7346000D02*
X5314000Y-7386000D01*
X5367000Y-10013000D02*
X5407000Y-10053000D01*
X5407000Y-10013000D02*
X5367000Y-10053000D01*
X5367000Y-10849000D02*
X5407000Y-10889000D01*
X5407000Y-10849000D02*
X5367000Y-10889000D01*
X5441000Y-8997000D02*
X5481000Y-9037000D01*
X5481000Y-8997000D02*
X5441000Y-9037000D01*
X5441000Y-11854500D02*
X5481000Y-11894500D01*
X5481000Y-11854500D02*
X5441000Y-11894500D01*
X5568000Y-11854500D02*
X5608000Y-11894500D01*
X5608000Y-11854500D02*
X5568000Y-11894500D01*
X5631500Y-15664500D02*
X5671500Y-15704500D01*
X5671500Y-15664500D02*
X5631500Y-15704500D01*
X5695000Y-9949500D02*
X5735000Y-9989500D01*
X5735000Y-9949500D02*
X5695000Y-9989500D01*
X5695000Y-10965500D02*
X5735000Y-11005500D01*
X5735000Y-10965500D02*
X5695000Y-11005500D01*
X5695000Y-11092500D02*
X5735000Y-11132500D01*
X5735000Y-11092500D02*
X5695000Y-11132500D01*
X5695000Y-11219500D02*
X5735000Y-11259500D01*
X5735000Y-11219500D02*
X5695000Y-11259500D01*
X5695000Y-11854500D02*
X5735000Y-11894500D01*
X5735000Y-11854500D02*
X5695000Y-11894500D01*
X5758500Y-12743500D02*
X5798500Y-12783500D01*
X5798500Y-12743500D02*
X5758500Y-12783500D01*
X5822000Y-14394500D02*
X5862000Y-14434500D01*
X5862000Y-14394500D02*
X5822000Y-14434500D01*
X5949000Y-8298500D02*
X5989000Y-8338500D01*
X5989000Y-8298500D02*
X5949000Y-8338500D01*
X5949000Y-13569000D02*
X5989000Y-13609000D01*
X5989000Y-13569000D02*
X5949000Y-13609000D01*
X5963000Y-6951000D02*
X6003000Y-6991000D01*
X6003000Y-6951000D02*
X5963000Y-6991000D01*
X6266500Y-11346500D02*
X6306500Y-11386500D01*
X6306500Y-11346500D02*
X6266500Y-11386500D01*
X6393500Y-10457500D02*
X6433500Y-10497500D01*
X6433500Y-10457500D02*
X6393500Y-10497500D01*
X6393500Y-10711500D02*
X6433500Y-10751500D01*
X6433500Y-10711500D02*
X6393500Y-10751500D01*
X6393500Y-11092500D02*
X6433500Y-11132500D01*
X6433500Y-11092500D02*
X6393500Y-11132500D01*
X6584000Y-7981000D02*
X6624000Y-8021000D01*
X6624000Y-7981000D02*
X6584000Y-8021000D01*
X6584000Y-9314500D02*
X6624000Y-9354500D01*
X6624000Y-9314500D02*
X6584000Y-9354500D01*
X6711000Y-10076500D02*
X6751000Y-10116500D01*
X6751000Y-10076500D02*
X6711000Y-10116500D01*
X6838000Y-7981000D02*
X6878000Y-8021000D01*
X6878000Y-7981000D02*
X6838000Y-8021000D01*
X6901500Y-14648500D02*
X6941500Y-14688500D01*
X6941500Y-14648500D02*
X6901500Y-14688500D01*
X7092000Y-7663500D02*
X7132000Y-7703500D01*
X7132000Y-7663500D02*
X7092000Y-7703500D01*
X7219000Y-12997500D02*
X7259000Y-13037500D01*
X7259000Y-12997500D02*
X7219000Y-13037500D01*
X7346000Y-7854000D02*
X7386000Y-7894000D01*
X7386000Y-7854000D02*
X7346000Y-7894000D01*
X7346000Y-8108000D02*
X7386000Y-8148000D01*
X7386000Y-8108000D02*
X7346000Y-8148000D01*
X7346000Y-9568500D02*
X7386000Y-9608500D01*
X7386000Y-9568500D02*
X7346000Y-9608500D01*
X7600000Y-7600000D02*
X7640000Y-7640000D01*
X7640000Y-7600000D02*
X7600000Y-7640000D01*
X7600000Y-8616000D02*
X7640000Y-8656000D01*
X7640000Y-8616000D02*
X7600000Y-8656000D01*
X7600000Y-8743000D02*
X7640000Y-8783000D01*
X7640000Y-8743000D02*
X7600000Y-8783000D01*
X7600000Y-11981500D02*
X7640000Y-12021500D01*
X7640000Y-11981500D02*
X7600000Y-12021500D01*
X7663500Y-9060500D02*
X7703500Y-9100500D01*
X7703500Y-9060500D02*
X7663500Y-9100500D01*
X7663500Y-10457500D02*
X7703500Y-10497500D01*
X7703500Y-10457500D02*
X7663500Y-10497500D01*
X7663500Y-10711500D02*
X7703500Y-10751500D01*
X7703500Y-10711500D02*
X7663500Y-10751500D01*
X7663500Y-11092500D02*
X7703500Y-11132500D01*
X7703500Y-11092500D02*
X7663500Y-11132500D01*
X7663500Y-11346500D02*
X7703500Y-11386500D01*
X7703500Y-11346500D02*
X7663500Y-11386500D01*
X7727000Y-7600000D02*
X7767000Y-7640000D01*
X7767000Y-7600000D02*
X7727000Y-7640000D01*
X7727000Y-9632000D02*
X7767000Y-9672000D01*
X7767000Y-9632000D02*
X7727000Y-9672000D01*
X7854000Y-12108500D02*
X7894000Y-12148500D01*
X7894000Y-12108500D02*
X7854000Y-12148500D01*
X7854000Y-12743500D02*
X7894000Y-12783500D01*
X7894000Y-12743500D02*
X7854000Y-12783500D01*
X7854000Y-14648500D02*
X7894000Y-14688500D01*
X7894000Y-14648500D02*
X7854000Y-14688500D01*
X7917500Y-10711500D02*
X7957500Y-10751500D01*
X7957500Y-10711500D02*
X7917500Y-10751500D01*
X7917500Y-11092500D02*
X7957500Y-11132500D01*
X7957500Y-11092500D02*
X7917500Y-11132500D01*
X8044500Y-10902000D02*
X8084500Y-10942000D01*
X8084500Y-10902000D02*
X8044500Y-10942000D01*
X8044500Y-11791000D02*
X8084500Y-11831000D01*
X8084500Y-11791000D02*
X8044500Y-11831000D01*
X8108000Y-9949500D02*
X8148000Y-9989500D01*
X8148000Y-9949500D02*
X8108000Y-9989500D01*
X8138000Y-9475000D02*
X8178000Y-9515000D01*
X8178000Y-9475000D02*
X8138000Y-9515000D01*
X8362000Y-7346000D02*
X8402000Y-7386000D01*
X8402000Y-7346000D02*
X8362000Y-7386000D01*
X8362000Y-9632000D02*
X8402000Y-9672000D01*
X8402000Y-9632000D02*
X8362000Y-9672000D01*
X8362000Y-10838500D02*
X8402000Y-10878500D01*
X8402000Y-10838500D02*
X8362000Y-10878500D01*
X8489000Y-10902000D02*
X8529000Y-10942000D01*
X8529000Y-10902000D02*
X8489000Y-10942000D01*
X8500500Y-9493500D02*
X8540500Y-9533500D01*
X8540500Y-9493500D02*
X8500500Y-9533500D01*
X8679500Y-9259000D02*
X8719500Y-9299000D01*
X8719500Y-9259000D02*
X8679500Y-9299000D01*
X8679500Y-9632000D02*
X8719500Y-9672000D01*
X8719500Y-9632000D02*
X8679500Y-9672000D01*
X8692200Y-9949500D02*
X8732200Y-9989500D01*
X8732200Y-9949500D02*
X8692200Y-9989500D01*
X8806500Y-11727500D02*
X8846500Y-11767500D01*
X8846500Y-11727500D02*
X8806500Y-11767500D01*
X8827500Y-9272000D02*
X8867500Y-9312000D01*
X8867500Y-9272000D02*
X8827500Y-9312000D01*
X8870000Y-12807000D02*
X8910000Y-12847000D01*
X8910000Y-12807000D02*
X8870000Y-12847000D01*
X8871033Y-10456467D02*
X8911033Y-10496467D01*
X8911033Y-10456467D02*
X8871033Y-10496467D01*
X8933500Y-7028500D02*
X8973500Y-7068500D01*
X8973500Y-7028500D02*
X8933500Y-7068500D01*
X8933500Y-9632000D02*
X8973500Y-9672000D01*
X8973500Y-9632000D02*
X8933500Y-9672000D01*
X8997000Y-11092500D02*
X9037000Y-11132500D01*
X9037000Y-11092500D02*
X8997000Y-11132500D01*
X9060500Y-14775500D02*
X9100500Y-14815500D01*
X9100500Y-14775500D02*
X9060500Y-14815500D01*
X9124000Y-10457500D02*
X9164000Y-10497500D01*
X9164000Y-10457500D02*
X9124000Y-10497500D01*
X9187500Y-7346000D02*
X9227500Y-7386000D01*
X9227500Y-7346000D02*
X9187500Y-7386000D01*
X9314500Y-12235500D02*
X9354500Y-12275500D01*
X9354500Y-12235500D02*
X9314500Y-12275500D01*
X9378000Y-10902000D02*
X9418000Y-10942000D01*
X9418000Y-10902000D02*
X9378000Y-10942000D01*
X9441500Y-9441500D02*
X9481500Y-9481500D01*
X9481500Y-9441500D02*
X9441500Y-9481500D01*
X9441500Y-10330500D02*
X9481500Y-10370500D01*
X9481500Y-10330500D02*
X9441500Y-10370500D01*
X9453000Y-10827000D02*
X9493000Y-10867000D01*
X9493000Y-10827000D02*
X9453000Y-10867000D01*
X9505000Y-14394500D02*
X9545000Y-14434500D01*
X9545000Y-14394500D02*
X9505000Y-14434500D01*
X9505000Y-15093000D02*
X9545000Y-15133000D01*
X9545000Y-15093000D02*
X9505000Y-15133000D01*
X9552518Y-10335452D02*
X9592518Y-10375452D01*
X9592518Y-10335452D02*
X9552518Y-10375452D01*
X9568500Y-7663500D02*
X9608500Y-7703500D01*
X9608500Y-7663500D02*
X9568500Y-7703500D01*
X9568500Y-8044500D02*
X9608500Y-8084500D01*
X9608500Y-8044500D02*
X9568500Y-8084500D01*
X9568500Y-8425500D02*
X9608500Y-8465500D01*
X9608500Y-8425500D02*
X9568500Y-8465500D01*
X9568500Y-8806500D02*
X9608500Y-8846500D01*
X9608500Y-8806500D02*
X9568500Y-8846500D01*
X9568500Y-10648000D02*
X9608500Y-10688000D01*
X9608500Y-10648000D02*
X9568500Y-10688000D01*
X9568500Y-12045000D02*
X9608500Y-12085000D01*
X9608500Y-12045000D02*
X9568500Y-12085000D01*
X9632000Y-11156000D02*
X9672000Y-11196000D01*
X9672000Y-11156000D02*
X9632000Y-11196000D01*
X9643500Y-10723000D02*
X9683500Y-10763000D01*
X9683500Y-10723000D02*
X9643500Y-10763000D01*
X9652325Y-10329234D02*
X9692325Y-10369234D01*
X9692325Y-10329234D02*
X9652325Y-10369234D01*
X9695500Y-9441500D02*
X9735500Y-9481500D01*
X9735500Y-9441500D02*
X9695500Y-9481500D01*
X9819467Y-10798967D02*
X9859467Y-10838967D01*
X9859467Y-10798967D02*
X9819467Y-10838967D01*
X9822500Y-10698800D02*
X9862500Y-10738800D01*
X9862500Y-10698800D02*
X9822500Y-10738800D01*
X9822500Y-10902000D02*
X9862500Y-10942000D01*
X9862500Y-10902000D02*
X9822500Y-10942000D01*
X9886000Y-7663500D02*
X9926000Y-7703500D01*
X9926000Y-7663500D02*
X9886000Y-7703500D01*
X9886000Y-8044500D02*
X9926000Y-8084500D01*
X9926000Y-8044500D02*
X9886000Y-8084500D01*
X9886000Y-8425500D02*
X9926000Y-8465500D01*
X9926000Y-8425500D02*
X9886000Y-8465500D01*
X9886000Y-8806500D02*
X9926000Y-8846500D01*
X9926000Y-8806500D02*
X9886000Y-8846500D01*
X9886000Y-9441500D02*
X9926000Y-9481500D01*
X9926000Y-9441500D02*
X9886000Y-9481500D01*
X9886000Y-10330500D02*
X9926000Y-10370500D01*
X9926000Y-10330500D02*
X9886000Y-10370500D01*
X9886000Y-11029000D02*
X9926000Y-11069000D01*
X9926000Y-11029000D02*
X9886000Y-11069000D01*
X9886000Y-11156000D02*
X9926000Y-11196000D01*
X9926000Y-11156000D02*
X9886000Y-11196000D01*
X9886000Y-12045000D02*
X9926000Y-12085000D01*
X9926000Y-12045000D02*
X9886000Y-12085000D01*
X9886000Y-12807000D02*
X9926000Y-12847000D01*
X9926000Y-12807000D02*
X9886000Y-12847000D01*
X9898700Y-10622600D02*
X9938700Y-10662600D01*
X9938700Y-10622600D02*
X9898700Y-10662600D01*
X10203500Y-11092500D02*
X10243500Y-11132500D01*
X10243500Y-11092500D02*
X10203500Y-11132500D01*
X10215000Y-10711500D02*
X10255000Y-10751500D01*
X10255000Y-10711500D02*
X10215000Y-10751500D01*
X10267000Y-11537000D02*
X10307000Y-11577000D01*
X10307000Y-11537000D02*
X10267000Y-11577000D01*
X10394000Y-14585000D02*
X10434000Y-14625000D01*
X10434000Y-14585000D02*
X10394000Y-14625000D01*
X10457500Y-12235500D02*
X10497500Y-12275500D01*
X10497500Y-12235500D02*
X10457500Y-12275500D01*
X10521000Y-7028500D02*
X10561000Y-7068500D01*
X10561000Y-7028500D02*
X10521000Y-7068500D01*
X10521000Y-9949500D02*
X10561000Y-9989500D01*
X10561000Y-9949500D02*
X10521000Y-9989500D01*
X10554500Y-14234000D02*
X10594500Y-14274000D01*
X10594500Y-14234000D02*
X10554500Y-14274000D01*
X10584500Y-10838500D02*
X10624500Y-10878500D01*
X10624500Y-10838500D02*
X10584500Y-10878500D01*
X10584500Y-13505500D02*
X10624500Y-13545500D01*
X10624500Y-13505500D02*
X10584500Y-13545500D01*
X10648000Y-9822500D02*
X10688000Y-9862500D01*
X10688000Y-9822500D02*
X10648000Y-9862500D01*
X10838500Y-8552500D02*
X10878500Y-8592500D01*
X10878500Y-8552500D02*
X10838500Y-8592500D01*
X10838500Y-9822500D02*
X10878500Y-9862500D01*
X10878500Y-9822500D02*
X10838500Y-9862500D01*
X10965500Y-8425500D02*
X11005500Y-8465500D01*
X11005500Y-8425500D02*
X10965500Y-8465500D01*
X10965500Y-9505000D02*
X11005500Y-9545000D01*
X11005500Y-9505000D02*
X10965500Y-9545000D01*
X10965500Y-9695500D02*
X11005500Y-9735500D01*
X11005500Y-9695500D02*
X10965500Y-9735500D01*
X11092500Y-9124000D02*
X11132500Y-9164000D01*
X11132500Y-9124000D02*
X11092500Y-9164000D01*
X11092500Y-9505000D02*
X11132500Y-9545000D01*
X11132500Y-9505000D02*
X11092500Y-9545000D01*
X11092500Y-10076500D02*
X11132500Y-10116500D01*
X11132500Y-10076500D02*
X11092500Y-10116500D01*
X11137000Y-9886000D02*
X11177000Y-9926000D01*
X11177000Y-9886000D02*
X11137000Y-9926000D01*
X11219500Y-12235500D02*
X11259500Y-12275500D01*
X11259500Y-12235500D02*
X11219500Y-12275500D01*
X11346500Y-12235500D02*
X11386500Y-12275500D01*
X11386500Y-12235500D02*
X11346500Y-12275500D01*
X11600500Y-7600000D02*
X11640500Y-7640000D01*
X11640500Y-7600000D02*
X11600500Y-7640000D01*
X11600500Y-12235500D02*
X11640500Y-12275500D01*
X11640500Y-12235500D02*
X11600500Y-12275500D01*
X11727500Y-7409500D02*
X11767500Y-7449500D01*
X11767500Y-7409500D02*
X11727500Y-7449500D01*
X11727500Y-9124000D02*
X11767500Y-9164000D01*
X11767500Y-9124000D02*
X11727500Y-9164000D01*
X11727500Y-12235500D02*
X11767500Y-12275500D01*
X11767500Y-12235500D02*
X11727500Y-12275500D01*
X11833000Y-11579000D02*
X11873000Y-11619000D01*
X11873000Y-11579000D02*
X11833000Y-11619000D01*
X11854500Y-9632000D02*
X11894500Y-9672000D01*
X11894500Y-9632000D02*
X11854500Y-9672000D01*
X11981500Y-7409500D02*
X12021500Y-7449500D01*
X12021500Y-7409500D02*
X11981500Y-7449500D01*
X11981500Y-9124000D02*
X12021500Y-9164000D01*
X12021500Y-9124000D02*
X11981500Y-9164000D01*
X11981500Y-13378500D02*
X12021500Y-13418500D01*
X12021500Y-13378500D02*
X11981500Y-13418500D01*
X11981500Y-13759500D02*
X12021500Y-13799500D01*
X12021500Y-13759500D02*
X11981500Y-13799500D01*
X12108500Y-7409500D02*
X12148500Y-7449500D01*
X12148500Y-7409500D02*
X12108500Y-7449500D01*
X12108500Y-8141500D02*
X12148500Y-8181500D01*
X12148500Y-8141500D02*
X12108500Y-8181500D01*
X12108500Y-8425500D02*
X12148500Y-8465500D01*
X12148500Y-8425500D02*
X12108500Y-8465500D01*
X12108500Y-15664500D02*
X12148500Y-15704500D01*
X12148500Y-15664500D02*
X12108500Y-15704500D01*
X12172000Y-9124000D02*
X12212000Y-9164000D01*
X12212000Y-9124000D02*
X12172000Y-9164000D01*
X12172000Y-12426000D02*
X12212000Y-12466000D01*
X12212000Y-12426000D02*
X12172000Y-12466000D01*
X12172000Y-13124500D02*
X12212000Y-13164500D01*
X12212000Y-13124500D02*
X12172000Y-13164500D01*
X12235500Y-8425500D02*
X12275500Y-8465500D01*
X12275500Y-8425500D02*
X12235500Y-8465500D01*
X12299000Y-13696000D02*
X12339000Y-13736000D01*
X12339000Y-13696000D02*
X12299000Y-13736000D01*
X12299000Y-14521500D02*
X12339000Y-14561500D01*
X12339000Y-14521500D02*
X12299000Y-14561500D01*
X12362500Y-9441500D02*
X12402500Y-9481500D01*
X12402500Y-9441500D02*
X12362500Y-9481500D01*
X12426000Y-7409500D02*
X12466000Y-7449500D01*
X12466000Y-7409500D02*
X12426000Y-7449500D01*
X12426000Y-15093000D02*
X12466000Y-15133000D01*
X12466000Y-15093000D02*
X12426000Y-15133000D01*
X12521250Y-13473750D02*
X12561250Y-13513750D01*
X12561250Y-13473750D02*
X12521250Y-13513750D01*
X12553000Y-7409500D02*
X12593000Y-7449500D01*
X12593000Y-7409500D02*
X12553000Y-7449500D01*
X12553000Y-12743500D02*
X12593000Y-12783500D01*
X12593000Y-12743500D02*
X12553000Y-12783500D01*
X12680000Y-7409500D02*
X12720000Y-7449500D01*
X12720000Y-7409500D02*
X12680000Y-7449500D01*
X12680000Y-8679500D02*
X12720000Y-8719500D01*
X12720000Y-8679500D02*
X12680000Y-8719500D01*
X12680000Y-9124000D02*
X12720000Y-9164000D01*
X12720000Y-9124000D02*
X12680000Y-9164000D01*
X12743500Y-8425500D02*
X12783500Y-8465500D01*
X12783500Y-8425500D02*
X12743500Y-8465500D01*
X12807000Y-7409500D02*
X12847000Y-7449500D01*
X12847000Y-7409500D02*
X12807000Y-7449500D01*
X12997500Y-9124000D02*
X13037500Y-9164000D01*
X13037500Y-9124000D02*
X12997500Y-9164000D01*
X12997500Y-11473500D02*
X13037500Y-11513500D01*
X13037500Y-11473500D02*
X12997500Y-11513500D01*
X12997500Y-13950000D02*
X13037500Y-13990000D01*
X13037500Y-13950000D02*
X12997500Y-13990000D01*
X12997500Y-14331000D02*
X13037500Y-14371000D01*
X13037500Y-14331000D02*
X12997500Y-14371000D01*
X13061000Y-7409500D02*
X13101000Y-7449500D01*
X13101000Y-7409500D02*
X13061000Y-7449500D01*
X13378500Y-9314500D02*
X13418500Y-9354500D01*
X13418500Y-9314500D02*
X13378500Y-9354500D01*
X13378500Y-9886000D02*
X13418500Y-9926000D01*
X13418500Y-9886000D02*
X13378500Y-9926000D01*
X13378500Y-10330500D02*
X13418500Y-10370500D01*
X13418500Y-10330500D02*
X13378500Y-10370500D01*
X13413000Y-9095000D02*
X13453000Y-9135000D01*
X13453000Y-9095000D02*
X13413000Y-9135000D01*
X13442000Y-7663500D02*
X13482000Y-7703500D01*
X13482000Y-7663500D02*
X13442000Y-7703500D01*
X13442000Y-7917500D02*
X13482000Y-7957500D01*
X13482000Y-7917500D02*
X13442000Y-7957500D01*
X13492800Y-7391500D02*
X13532800Y-7431500D01*
X13532800Y-7391500D02*
X13492800Y-7431500D01*
X13540000Y-9095000D02*
X13580000Y-9135000D01*
X13580000Y-9095000D02*
X13540000Y-9135000D01*
X13674000Y-7622000D02*
X13714000Y-7662000D01*
X13714000Y-7622000D02*
X13674000Y-7662000D01*
X13674000Y-8257000D02*
X13714000Y-8297000D01*
X13714000Y-8257000D02*
X13674000Y-8297000D01*
X13696000Y-15093000D02*
X13736000Y-15133000D01*
X13736000Y-15093000D02*
X13696000Y-15133000D01*
X13696000Y-15664500D02*
X13736000Y-15704500D01*
X13736000Y-15664500D02*
X13696000Y-15704500D01*
X14267500Y-11537000D02*
X14307500Y-11577000D01*
X14307500Y-11537000D02*
X14267500Y-11577000D01*
X14267500Y-13188000D02*
X14307500Y-13228000D01*
X14307500Y-13188000D02*
X14267500Y-13228000D01*
X14267500Y-15029500D02*
X14307500Y-15069500D01*
X14307500Y-15029500D02*
X14267500Y-15069500D01*
X13050000Y-14541500D02*
G75*
G03*
X13050000Y-14541500I-32500J0D01*
G01*
X13304000Y-14795500D02*
G75*
G03*
X13304000Y-14795500I-32500J0D01*
G01*
X12763500Y-14506500D02*
X12763500Y-14576500D01*
X12728500Y-14541500D02*
X12798500Y-14541500D01*
X12763500Y-14760500D02*
X12763500Y-14830500D01*
X12728500Y-14795500D02*
X12798500Y-14795500D01*
X13017500Y-14760500D02*
X13017500Y-14830500D01*
X12982500Y-14795500D02*
X13052500Y-14795500D01*
X13271500Y-14506500D02*
X13271500Y-14576500D01*
X13236500Y-14541500D02*
X13306500Y-14541500D01*
X12351500Y-9786000D02*
X12351500Y-9856000D01*
X12316500Y-9821000D02*
X12386500Y-9821000D01*
X12351500Y-10040000D02*
X12351500Y-10110000D01*
X12316500Y-10075000D02*
X12386500Y-10075000D01*
X12351500Y-10294000D02*
X12351500Y-10364000D01*
X12316500Y-10329000D02*
X12386500Y-10329000D01*
X12351500Y-10548000D02*
X12351500Y-10618000D01*
X12316500Y-10583000D02*
X12386500Y-10583000D01*
X12351500Y-10802000D02*
X12351500Y-10872000D01*
X12316500Y-10837000D02*
X12386500Y-10837000D01*
X12351500Y-11056000D02*
X12351500Y-11126000D01*
X12316500Y-11091000D02*
X12386500Y-11091000D01*
X12351500Y-11310000D02*
X12351500Y-11380000D01*
X12316500Y-11345000D02*
X12386500Y-11345000D01*
X12351500Y-11564000D02*
X12351500Y-11634000D01*
X12316500Y-11599000D02*
X12386500Y-11599000D01*
X12351500Y-11818000D02*
X12351500Y-11888000D01*
X12316500Y-11853000D02*
X12386500Y-11853000D01*
X9043517Y-15584017D02*
X9043517Y-15530983D01*
X8990483Y-15530983D01*
X8990483Y-15584017D01*
X9043517Y-15584017D01*
X9170517Y-15584017D02*
X9170517Y-15530983D01*
X9117483Y-15530983D01*
X9117483Y-15584017D01*
X9170517Y-15584017D01*
X9297517Y-15584017D02*
X9297517Y-15530983D01*
X9244483Y-15530983D01*
X9244483Y-15584017D01*
X9297517Y-15584017D01*
X4318100Y-14589000D02*
X4365600Y-14541500D01*
X4318100Y-14494000D01*
X4270600Y-14541500D01*
X4318100Y-14589000D01*
X4445100Y-14335000D02*
X4492600Y-14287500D01*
X4445100Y-14240000D01*
X4397600Y-14287500D01*
X4445100Y-14335000D01*
X4572100Y-14589000D02*
X4619600Y-14541500D01*
X4572100Y-14494000D01*
X4524600Y-14541500D01*
X4572100Y-14589000D01*
X4699100Y-14335000D02*
X4746600Y-14287500D01*
X4699100Y-14240000D01*
X4651600Y-14287500D01*
X4699100Y-14335000D01*
X4826100Y-14589000D02*
X4873600Y-14541500D01*
X4826100Y-14494000D01*
X4778600Y-14541500D01*
X4826100Y-14589000D01*
X4953100Y-14335000D02*
X5000600Y-14287500D01*
X4953100Y-14240000D01*
X4905600Y-14287500D01*
X4953100Y-14335000D01*
X5080100Y-14589000D02*
X5127600Y-14541500D01*
X5080100Y-14494000D01*
X5032600Y-14541500D01*
X5080100Y-14589000D01*
X5207100Y-14335000D02*
X5254600Y-14287500D01*
X5207100Y-14240000D01*
X5159600Y-14287500D01*
X5207100Y-14335000D01*
X10168500Y-13464500D02*
X10288500Y-13584500D01*
X10288500Y-13464500D02*
X10168500Y-13584500D01*
X10288500Y-13524500D02*
G75*
G03*
X10288500Y-13524500I-60000J0D01*
G01*
X10168500Y-13974500D02*
X10288500Y-14094500D01*
X10288500Y-13974500D02*
X10168500Y-14094500D01*
X10288500Y-14034500D02*
G75*
G03*
X10288500Y-14034500I-60000J0D01*
G01*
X10798500Y-14414500D02*
X10918500Y-14534500D01*
X10918500Y-14414500D02*
X10798500Y-14534500D01*
X10918500Y-14474500D02*
G75*
G03*
X10918500Y-14474500I-60000J0D01*
G01*
X11428500Y-13464500D02*
X11548500Y-13584500D01*
X11548500Y-13464500D02*
X11428500Y-13584500D01*
X11548500Y-13524500D02*
G75*
G03*
X11548500Y-13524500I-60000J0D01*
G01*
X11428500Y-13974500D02*
X11548500Y-14094500D01*
X11548500Y-13974500D02*
X11428500Y-14094500D01*
X11548500Y-14034500D02*
G75*
G03*
X11548500Y-14034500I-60000J0D01*
G01*
X8460000Y-13464500D02*
X8580000Y-13584500D01*
X8580000Y-13464500D02*
X8460000Y-13584500D01*
X8580000Y-13524500D02*
G75*
G03*
X8580000Y-13524500I-60000J0D01*
G01*
X8460000Y-13974500D02*
X8580000Y-14094500D01*
X8580000Y-13974500D02*
X8460000Y-14094500D01*
X8580000Y-14034500D02*
G75*
G03*
X8580000Y-14034500I-60000J0D01*
G01*
X9090000Y-14414500D02*
X9210000Y-14534500D01*
X9210000Y-14414500D02*
X9090000Y-14534500D01*
X9210000Y-14474500D02*
G75*
G03*
X9210000Y-14474500I-60000J0D01*
G01*
X9720000Y-13464500D02*
X9840000Y-13584500D01*
X9840000Y-13464500D02*
X9720000Y-13584500D01*
X9840000Y-13524500D02*
G75*
G03*
X9840000Y-13524500I-60000J0D01*
G01*
X9720000Y-13974500D02*
X9840000Y-14094500D01*
X9840000Y-13974500D02*
X9720000Y-14094500D01*
X9840000Y-14034500D02*
G75*
G03*
X9840000Y-14034500I-60000J0D01*
G01*
X6739500Y-13464500D02*
X6859500Y-13584500D01*
X6859500Y-13464500D02*
X6739500Y-13584500D01*
X6859500Y-13524500D02*
G75*
G03*
X6859500Y-13524500I-60000J0D01*
G01*
X6739500Y-13974500D02*
X6859500Y-14094500D01*
X6859500Y-13974500D02*
X6739500Y-14094500D01*
X6859500Y-14034500D02*
G75*
G03*
X6859500Y-14034500I-60000J0D01*
G01*
X7369500Y-14414500D02*
X7489500Y-14534500D01*
X7489500Y-14414500D02*
X7369500Y-14534500D01*
X7489500Y-14474500D02*
G75*
G03*
X7489500Y-14474500I-60000J0D01*
G01*
X7999500Y-13464500D02*
X8119500Y-13584500D01*
X8119500Y-13464500D02*
X7999500Y-13584500D01*
X8119500Y-13524500D02*
G75*
G03*
X8119500Y-13524500I-60000J0D01*
G01*
X7999500Y-13974500D02*
X8119500Y-14094500D01*
X8119500Y-13974500D02*
X7999500Y-14094500D01*
X8119500Y-14034500D02*
G75*
G03*
X8119500Y-14034500I-60000J0D01*
G01*
D12*
X4076428Y-16350714D02*
X4076428Y-16050714D01*
X4147857Y-16050714D01*
X4190714Y-16065000D01*
X4219286Y-16093571D01*
X4233571Y-16122143D01*
X4247857Y-16179286D01*
X4247857Y-16222143D01*
X4233571Y-16279286D01*
X4219286Y-16307857D01*
X4190714Y-16336429D01*
X4147857Y-16350714D01*
X4076428Y-16350714D01*
X4376428Y-16350714D02*
X4376428Y-16150714D01*
X4376428Y-16207857D02*
X4390714Y-16179286D01*
X4405000Y-16165000D01*
X4433571Y-16150714D01*
X4462143Y-16150714D01*
X4562143Y-16350714D02*
X4562143Y-16150714D01*
X4562143Y-16050714D02*
X4547857Y-16065000D01*
X4562143Y-16079286D01*
X4576428Y-16065000D01*
X4562143Y-16050714D01*
X4562143Y-16079286D01*
X4747857Y-16350714D02*
X4719286Y-16336429D01*
X4705000Y-16307857D01*
X4705000Y-16050714D01*
X4905000Y-16350714D02*
X4876428Y-16336429D01*
X4862143Y-16307857D01*
X4862143Y-16050714D01*
X5247857Y-16350714D02*
X5247857Y-16050714D01*
X5347857Y-16265000D01*
X5447857Y-16050714D01*
X5447857Y-16350714D01*
X5719286Y-16350714D02*
X5719286Y-16193571D01*
X5705000Y-16165000D01*
X5676428Y-16150714D01*
X5619286Y-16150714D01*
X5590714Y-16165000D01*
X5719286Y-16336429D02*
X5690714Y-16350714D01*
X5619286Y-16350714D01*
X5590714Y-16336429D01*
X5576428Y-16307857D01*
X5576428Y-16279286D01*
X5590714Y-16250714D01*
X5619286Y-16236429D01*
X5690714Y-16236429D01*
X5719286Y-16222143D01*
X5862143Y-16150714D02*
X5862143Y-16450714D01*
X5862143Y-16165000D02*
X5890714Y-16150714D01*
X5947857Y-16150714D01*
X5976428Y-16165000D01*
X5990714Y-16179286D01*
X6005000Y-16207857D01*
X6005000Y-16293571D01*
X5990714Y-16322143D01*
X5976428Y-16336429D01*
X5947857Y-16350714D01*
X5890714Y-16350714D01*
X5862143Y-16336429D01*
X6133571Y-16322143D02*
X6147857Y-16336429D01*
X6133571Y-16350714D01*
X6119286Y-16336429D01*
X6133571Y-16322143D01*
X6133571Y-16350714D01*
X6133571Y-16165000D02*
X6147857Y-16179286D01*
X6133571Y-16193571D01*
X6119286Y-16179286D01*
X6133571Y-16165000D01*
X6133571Y-16193571D01*
X3750000Y-16825000D02*
X3790000Y-16865000D01*
X3790000Y-16825000D02*
X3750000Y-16865000D01*
X4133571Y-16680714D02*
X4162143Y-16680714D01*
X4190714Y-16695000D01*
X4205000Y-16709286D01*
X4219286Y-16737857D01*
X4233571Y-16795000D01*
X4233571Y-16866429D01*
X4219286Y-16923572D01*
X4205000Y-16952143D01*
X4190714Y-16966429D01*
X4162143Y-16980714D01*
X4133571Y-16980714D01*
X4105000Y-16966429D01*
X4090714Y-16952143D01*
X4076428Y-16923572D01*
X4062143Y-16866429D01*
X4062143Y-16795000D01*
X4076428Y-16737857D01*
X4090714Y-16709286D01*
X4105000Y-16695000D01*
X4133571Y-16680714D01*
X4362143Y-16952143D02*
X4376428Y-16966429D01*
X4362143Y-16980714D01*
X4347857Y-16966429D01*
X4362143Y-16952143D01*
X4362143Y-16980714D01*
X4633571Y-16780714D02*
X4633571Y-16980714D01*
X4562143Y-16666429D02*
X4490714Y-16880714D01*
X4676428Y-16880714D01*
X4847857Y-16680714D02*
X4876428Y-16680714D01*
X4905000Y-16695000D01*
X4919286Y-16709286D01*
X4933571Y-16737857D01*
X4947857Y-16795000D01*
X4947857Y-16866429D01*
X4933571Y-16923572D01*
X4919286Y-16952143D01*
X4905000Y-16966429D01*
X4876428Y-16980714D01*
X4847857Y-16980714D01*
X4819286Y-16966429D01*
X4805000Y-16952143D01*
X4790714Y-16923572D01*
X4776428Y-16866429D01*
X4776428Y-16795000D01*
X4790714Y-16737857D01*
X4805000Y-16709286D01*
X4819286Y-16695000D01*
X4847857Y-16680714D01*
X5076428Y-16980714D02*
X5076428Y-16780714D01*
X5076428Y-16809286D02*
X5090714Y-16795000D01*
X5119286Y-16780714D01*
X5162143Y-16780714D01*
X5190714Y-16795000D01*
X5205000Y-16823572D01*
X5205000Y-16980714D01*
X5205000Y-16823572D02*
X5219286Y-16795000D01*
X5247857Y-16780714D01*
X5290714Y-16780714D01*
X5319286Y-16795000D01*
X5333571Y-16823572D01*
X5333571Y-16980714D01*
X5476428Y-16980714D02*
X5476428Y-16780714D01*
X5476428Y-16809286D02*
X5490714Y-16795000D01*
X5519286Y-16780714D01*
X5562143Y-16780714D01*
X5590714Y-16795000D01*
X5605000Y-16823572D01*
X5605000Y-16980714D01*
X5605000Y-16823572D02*
X5619286Y-16795000D01*
X5647857Y-16780714D01*
X5690714Y-16780714D01*
X5719286Y-16795000D01*
X5733571Y-16823572D01*
X5733571Y-16980714D01*
X6319286Y-16666429D02*
X6062143Y-17052143D01*
X6705000Y-16680714D02*
X6733571Y-16680714D01*
X6762143Y-16695000D01*
X6776428Y-16709286D01*
X6790714Y-16737857D01*
X6805000Y-16795000D01*
X6805000Y-16866429D01*
X6790714Y-16923572D01*
X6776428Y-16952143D01*
X6762143Y-16966429D01*
X6733571Y-16980714D01*
X6705000Y-16980714D01*
X6676428Y-16966429D01*
X6662143Y-16952143D01*
X6647857Y-16923572D01*
X6633571Y-16866429D01*
X6633571Y-16795000D01*
X6647857Y-16737857D01*
X6662143Y-16709286D01*
X6676428Y-16695000D01*
X6705000Y-16680714D01*
X6933571Y-16952143D02*
X6947857Y-16966429D01*
X6933571Y-16980714D01*
X6919286Y-16966429D01*
X6933571Y-16952143D01*
X6933571Y-16980714D01*
X7133571Y-16680714D02*
X7162143Y-16680714D01*
X7190714Y-16695000D01*
X7205000Y-16709286D01*
X7219286Y-16737857D01*
X7233571Y-16795000D01*
X7233571Y-16866429D01*
X7219286Y-16923572D01*
X7205000Y-16952143D01*
X7190714Y-16966429D01*
X7162143Y-16980714D01*
X7133571Y-16980714D01*
X7105000Y-16966429D01*
X7090714Y-16952143D01*
X7076428Y-16923572D01*
X7062143Y-16866429D01*
X7062143Y-16795000D01*
X7076428Y-16737857D01*
X7090714Y-16709286D01*
X7105000Y-16695000D01*
X7133571Y-16680714D01*
X7519286Y-16980714D02*
X7347857Y-16980714D01*
X7433571Y-16980714D02*
X7433571Y-16680714D01*
X7405000Y-16723571D01*
X7376428Y-16752143D01*
X7347857Y-16766429D01*
X7776428Y-16680714D02*
X7719286Y-16680714D01*
X7690714Y-16695000D01*
X7676428Y-16709286D01*
X7647857Y-16752143D01*
X7633571Y-16809286D01*
X7633571Y-16923572D01*
X7647857Y-16952143D01*
X7662143Y-16966429D01*
X7690714Y-16980714D01*
X7747857Y-16980714D01*
X7776428Y-16966429D01*
X7790714Y-16952143D01*
X7805000Y-16923572D01*
X7805000Y-16852143D01*
X7790714Y-16823572D01*
X7776428Y-16809286D01*
X7747857Y-16795000D01*
X7690714Y-16795000D01*
X7662143Y-16809286D01*
X7647857Y-16823572D01*
X7633571Y-16852143D01*
X7919286Y-16680714D02*
X7919286Y-16737857D01*
X8033571Y-16680714D02*
X8033571Y-16737857D01*
X8476428Y-17095000D02*
X8462143Y-17080714D01*
X8433571Y-17037857D01*
X8419286Y-17009286D01*
X8405000Y-16966429D01*
X8390714Y-16895000D01*
X8390714Y-16837857D01*
X8405000Y-16766429D01*
X8419286Y-16723571D01*
X8433571Y-16695000D01*
X8462143Y-16652143D01*
X8476428Y-16637857D01*
X8576428Y-16709286D02*
X8590714Y-16695000D01*
X8619286Y-16680714D01*
X8690714Y-16680714D01*
X8719286Y-16695000D01*
X8733571Y-16709286D01*
X8747857Y-16737857D01*
X8747857Y-16766429D01*
X8733571Y-16809286D01*
X8562143Y-16980714D01*
X8747857Y-16980714D01*
X8933571Y-16680714D02*
X8962143Y-16680714D01*
X8990714Y-16695000D01*
X9005000Y-16709286D01*
X9019286Y-16737857D01*
X9033571Y-16795000D01*
X9033571Y-16866429D01*
X9019286Y-16923572D01*
X9005000Y-16952143D01*
X8990714Y-16966429D01*
X8962143Y-16980714D01*
X8933571Y-16980714D01*
X8905000Y-16966429D01*
X8890714Y-16952143D01*
X8876428Y-16923572D01*
X8862143Y-16866429D01*
X8862143Y-16795000D01*
X8876428Y-16737857D01*
X8890714Y-16709286D01*
X8905000Y-16695000D01*
X8933571Y-16680714D01*
X9305000Y-16680714D02*
X9162143Y-16680714D01*
X9147857Y-16823572D01*
X9162143Y-16809286D01*
X9190714Y-16795000D01*
X9262143Y-16795000D01*
X9290714Y-16809286D01*
X9305000Y-16823572D01*
X9319286Y-16852143D01*
X9319286Y-16923572D01*
X9305000Y-16952143D01*
X9290714Y-16966429D01*
X9262143Y-16980714D01*
X9190714Y-16980714D01*
X9162143Y-16966429D01*
X9147857Y-16952143D01*
X9676428Y-16980714D02*
X9676428Y-16680714D01*
X9805000Y-16980714D02*
X9805000Y-16823572D01*
X9790714Y-16795000D01*
X9762143Y-16780714D01*
X9719286Y-16780714D01*
X9690714Y-16795000D01*
X9676428Y-16809286D01*
X9990714Y-16980714D02*
X9962143Y-16966429D01*
X9947857Y-16952143D01*
X9933571Y-16923572D01*
X9933571Y-16837857D01*
X9947857Y-16809286D01*
X9962143Y-16795000D01*
X9990714Y-16780714D01*
X10033571Y-16780714D01*
X10062143Y-16795000D01*
X10076428Y-16809286D01*
X10090714Y-16837857D01*
X10090714Y-16923572D01*
X10076428Y-16952143D01*
X10062143Y-16966429D01*
X10033571Y-16980714D01*
X9990714Y-16980714D01*
X10262143Y-16980714D02*
X10233571Y-16966429D01*
X10219286Y-16937857D01*
X10219286Y-16680714D01*
X10490714Y-16966429D02*
X10462143Y-16980714D01*
X10405000Y-16980714D01*
X10376428Y-16966429D01*
X10362143Y-16937857D01*
X10362143Y-16823572D01*
X10376428Y-16795000D01*
X10405000Y-16780714D01*
X10462143Y-16780714D01*
X10490714Y-16795000D01*
X10505000Y-16823572D01*
X10505000Y-16852143D01*
X10362143Y-16880714D01*
X10619286Y-16966429D02*
X10647857Y-16980714D01*
X10705000Y-16980714D01*
X10733571Y-16966429D01*
X10747857Y-16937857D01*
X10747857Y-16923572D01*
X10733571Y-16895000D01*
X10705000Y-16880714D01*
X10662143Y-16880714D01*
X10633571Y-16866429D01*
X10619286Y-16837857D01*
X10619286Y-16823572D01*
X10633571Y-16795000D01*
X10662143Y-16780714D01*
X10705000Y-16780714D01*
X10733571Y-16795000D01*
X10847857Y-17095000D02*
X10862143Y-17080714D01*
X10890714Y-17037857D01*
X10905000Y-17009286D01*
X10919286Y-16966429D01*
X10933571Y-16895000D01*
X10933571Y-16837857D01*
X10919286Y-16766429D01*
X10905000Y-16723571D01*
X10890714Y-16695000D01*
X10862143Y-16652143D01*
X10847857Y-16637857D01*
X3790000Y-17241000D02*
G75*
G03*
X3790000Y-17241000I-32500J0D01*
G01*
X4133571Y-17076714D02*
X4162143Y-17076714D01*
X4190714Y-17091000D01*
X4205000Y-17105286D01*
X4219286Y-17133857D01*
X4233571Y-17191000D01*
X4233571Y-17262429D01*
X4219286Y-17319572D01*
X4205000Y-17348143D01*
X4190714Y-17362429D01*
X4162143Y-17376714D01*
X4133571Y-17376714D01*
X4105000Y-17362429D01*
X4090714Y-17348143D01*
X4076428Y-17319572D01*
X4062143Y-17262429D01*
X4062143Y-17191000D01*
X4076428Y-17133857D01*
X4090714Y-17105286D01*
X4105000Y-17091000D01*
X4133571Y-17076714D01*
X4362143Y-17348143D02*
X4376428Y-17362429D01*
X4362143Y-17376714D01*
X4347857Y-17362429D01*
X4362143Y-17348143D01*
X4362143Y-17376714D01*
X4633571Y-17076714D02*
X4576428Y-17076714D01*
X4547857Y-17091000D01*
X4533571Y-17105286D01*
X4505000Y-17148143D01*
X4490714Y-17205286D01*
X4490714Y-17319572D01*
X4505000Y-17348143D01*
X4519286Y-17362429D01*
X4547857Y-17376714D01*
X4605000Y-17376714D01*
X4633571Y-17362429D01*
X4647857Y-17348143D01*
X4662143Y-17319572D01*
X4662143Y-17248143D01*
X4647857Y-17219572D01*
X4633571Y-17205286D01*
X4605000Y-17191000D01*
X4547857Y-17191000D01*
X4519286Y-17205286D01*
X4505000Y-17219572D01*
X4490714Y-17248143D01*
X4933571Y-17076714D02*
X4790714Y-17076714D01*
X4776428Y-17219572D01*
X4790714Y-17205286D01*
X4819286Y-17191000D01*
X4890714Y-17191000D01*
X4919286Y-17205286D01*
X4933571Y-17219572D01*
X4947857Y-17248143D01*
X4947857Y-17319572D01*
X4933571Y-17348143D01*
X4919286Y-17362429D01*
X4890714Y-17376714D01*
X4819286Y-17376714D01*
X4790714Y-17362429D01*
X4776428Y-17348143D01*
X5076428Y-17376714D02*
X5076428Y-17176714D01*
X5076428Y-17205286D02*
X5090714Y-17191000D01*
X5119286Y-17176714D01*
X5162143Y-17176714D01*
X5190714Y-17191000D01*
X5205000Y-17219572D01*
X5205000Y-17376714D01*
X5205000Y-17219572D02*
X5219286Y-17191000D01*
X5247857Y-17176714D01*
X5290714Y-17176714D01*
X5319286Y-17191000D01*
X5333571Y-17219572D01*
X5333571Y-17376714D01*
X5476428Y-17376714D02*
X5476428Y-17176714D01*
X5476428Y-17205286D02*
X5490714Y-17191000D01*
X5519286Y-17176714D01*
X5562143Y-17176714D01*
X5590714Y-17191000D01*
X5605000Y-17219572D01*
X5605000Y-17376714D01*
X5605000Y-17219572D02*
X5619286Y-17191000D01*
X5647857Y-17176714D01*
X5690714Y-17176714D01*
X5719286Y-17191000D01*
X5733571Y-17219572D01*
X5733571Y-17376714D01*
X6319286Y-17062429D02*
X6062143Y-17448143D01*
X6705000Y-17076714D02*
X6733571Y-17076714D01*
X6762143Y-17091000D01*
X6776428Y-17105286D01*
X6790714Y-17133857D01*
X6805000Y-17191000D01*
X6805000Y-17262429D01*
X6790714Y-17319572D01*
X6776428Y-17348143D01*
X6762143Y-17362429D01*
X6733571Y-17376714D01*
X6705000Y-17376714D01*
X6676428Y-17362429D01*
X6662143Y-17348143D01*
X6647857Y-17319572D01*
X6633571Y-17262429D01*
X6633571Y-17191000D01*
X6647857Y-17133857D01*
X6662143Y-17105286D01*
X6676428Y-17091000D01*
X6705000Y-17076714D01*
X6933571Y-17348143D02*
X6947857Y-17362429D01*
X6933571Y-17376714D01*
X6919286Y-17362429D01*
X6933571Y-17348143D01*
X6933571Y-17376714D01*
X7133571Y-17076714D02*
X7162143Y-17076714D01*
X7190714Y-17091000D01*
X7205000Y-17105286D01*
X7219286Y-17133857D01*
X7233571Y-17191000D01*
X7233571Y-17262429D01*
X7219286Y-17319572D01*
X7205000Y-17348143D01*
X7190714Y-17362429D01*
X7162143Y-17376714D01*
X7133571Y-17376714D01*
X7105000Y-17362429D01*
X7090714Y-17348143D01*
X7076428Y-17319572D01*
X7062143Y-17262429D01*
X7062143Y-17191000D01*
X7076428Y-17133857D01*
X7090714Y-17105286D01*
X7105000Y-17091000D01*
X7133571Y-17076714D01*
X7347857Y-17105286D02*
X7362143Y-17091000D01*
X7390714Y-17076714D01*
X7462143Y-17076714D01*
X7490714Y-17091000D01*
X7505000Y-17105286D01*
X7519286Y-17133857D01*
X7519286Y-17162429D01*
X7505000Y-17205286D01*
X7333571Y-17376714D01*
X7519286Y-17376714D01*
X7776428Y-17076714D02*
X7719286Y-17076714D01*
X7690714Y-17091000D01*
X7676428Y-17105286D01*
X7647857Y-17148143D01*
X7633571Y-17205286D01*
X7633571Y-17319572D01*
X7647857Y-17348143D01*
X7662143Y-17362429D01*
X7690714Y-17376714D01*
X7747857Y-17376714D01*
X7776428Y-17362429D01*
X7790714Y-17348143D01*
X7805000Y-17319572D01*
X7805000Y-17248143D01*
X7790714Y-17219572D01*
X7776428Y-17205286D01*
X7747857Y-17191000D01*
X7690714Y-17191000D01*
X7662143Y-17205286D01*
X7647857Y-17219572D01*
X7633571Y-17248143D01*
X7919286Y-17076714D02*
X7919286Y-17133857D01*
X8033571Y-17076714D02*
X8033571Y-17133857D01*
X8476428Y-17491000D02*
X8462143Y-17476714D01*
X8433571Y-17433857D01*
X8419286Y-17405286D01*
X8405000Y-17362429D01*
X8390714Y-17291000D01*
X8390714Y-17233857D01*
X8405000Y-17162429D01*
X8419286Y-17119572D01*
X8433571Y-17091000D01*
X8462143Y-17048143D01*
X8476428Y-17033857D01*
X8576428Y-17105286D02*
X8590714Y-17091000D01*
X8619286Y-17076714D01*
X8690714Y-17076714D01*
X8719286Y-17091000D01*
X8733571Y-17105286D01*
X8747857Y-17133857D01*
X8747857Y-17162429D01*
X8733571Y-17205286D01*
X8562143Y-17376714D01*
X8747857Y-17376714D01*
X9105000Y-17376714D02*
X9105000Y-17076714D01*
X9233571Y-17376714D02*
X9233571Y-17219572D01*
X9219286Y-17191000D01*
X9190714Y-17176714D01*
X9147857Y-17176714D01*
X9119286Y-17191000D01*
X9105000Y-17205286D01*
X9419286Y-17376714D02*
X9390714Y-17362429D01*
X9376428Y-17348143D01*
X9362143Y-17319572D01*
X9362143Y-17233857D01*
X9376428Y-17205286D01*
X9390714Y-17191000D01*
X9419286Y-17176714D01*
X9462143Y-17176714D01*
X9490714Y-17191000D01*
X9505000Y-17205286D01*
X9519286Y-17233857D01*
X9519286Y-17319572D01*
X9505000Y-17348143D01*
X9490714Y-17362429D01*
X9462143Y-17376714D01*
X9419286Y-17376714D01*
X9690714Y-17376714D02*
X9662143Y-17362429D01*
X9647857Y-17333857D01*
X9647857Y-17076714D01*
X9919286Y-17362429D02*
X9890714Y-17376714D01*
X9833571Y-17376714D01*
X9805000Y-17362429D01*
X9790714Y-17333857D01*
X9790714Y-17219572D01*
X9805000Y-17191000D01*
X9833571Y-17176714D01*
X9890714Y-17176714D01*
X9919286Y-17191000D01*
X9933571Y-17219572D01*
X9933571Y-17248143D01*
X9790714Y-17276714D01*
X10047857Y-17362429D02*
X10076428Y-17376714D01*
X10133571Y-17376714D01*
X10162143Y-17362429D01*
X10176428Y-17333857D01*
X10176428Y-17319572D01*
X10162143Y-17291000D01*
X10133571Y-17276714D01*
X10090714Y-17276714D01*
X10062143Y-17262429D01*
X10047857Y-17233857D01*
X10047857Y-17219572D01*
X10062143Y-17191000D01*
X10090714Y-17176714D01*
X10133571Y-17176714D01*
X10162143Y-17191000D01*
X10276428Y-17491000D02*
X10290714Y-17476714D01*
X10319286Y-17433857D01*
X10333571Y-17405286D01*
X10347857Y-17362429D01*
X10362143Y-17291000D01*
X10362143Y-17233857D01*
X10347857Y-17162429D01*
X10333571Y-17119572D01*
X10319286Y-17091000D01*
X10290714Y-17048143D01*
X10276428Y-17033857D01*
X3755000Y-17602000D02*
X3755000Y-17672000D01*
X3720000Y-17637000D02*
X3790000Y-17637000D01*
X4133571Y-17472714D02*
X4162143Y-17472714D01*
X4190714Y-17487000D01*
X4205000Y-17501286D01*
X4219286Y-17529857D01*
X4233571Y-17587000D01*
X4233571Y-17658429D01*
X4219286Y-17715572D01*
X4205000Y-17744143D01*
X4190714Y-17758429D01*
X4162143Y-17772714D01*
X4133571Y-17772714D01*
X4105000Y-17758429D01*
X4090714Y-17744143D01*
X4076428Y-17715572D01*
X4062143Y-17658429D01*
X4062143Y-17587000D01*
X4076428Y-17529857D01*
X4090714Y-17501286D01*
X4105000Y-17487000D01*
X4133571Y-17472714D01*
X4362143Y-17744143D02*
X4376428Y-17758429D01*
X4362143Y-17772714D01*
X4347857Y-17758429D01*
X4362143Y-17744143D01*
X4362143Y-17772714D01*
X4476428Y-17472714D02*
X4676428Y-17472714D01*
X4547857Y-17772714D01*
X4847857Y-17472714D02*
X4876428Y-17472714D01*
X4905000Y-17487000D01*
X4919286Y-17501286D01*
X4933571Y-17529857D01*
X4947857Y-17587000D01*
X4947857Y-17658429D01*
X4933571Y-17715572D01*
X4919286Y-17744143D01*
X4905000Y-17758429D01*
X4876428Y-17772714D01*
X4847857Y-17772714D01*
X4819286Y-17758429D01*
X4805000Y-17744143D01*
X4790714Y-17715572D01*
X4776428Y-17658429D01*
X4776428Y-17587000D01*
X4790714Y-17529857D01*
X4805000Y-17501286D01*
X4819286Y-17487000D01*
X4847857Y-17472714D01*
X5076428Y-17772714D02*
X5076428Y-17572714D01*
X5076428Y-17601286D02*
X5090714Y-17587000D01*
X5119286Y-17572714D01*
X5162143Y-17572714D01*
X5190714Y-17587000D01*
X5205000Y-17615572D01*
X5205000Y-17772714D01*
X5205000Y-17615572D02*
X5219286Y-17587000D01*
X5247857Y-17572714D01*
X5290714Y-17572714D01*
X5319286Y-17587000D01*
X5333571Y-17615572D01*
X5333571Y-17772714D01*
X5476428Y-17772714D02*
X5476428Y-17572714D01*
X5476428Y-17601286D02*
X5490714Y-17587000D01*
X5519286Y-17572714D01*
X5562143Y-17572714D01*
X5590714Y-17587000D01*
X5605000Y-17615572D01*
X5605000Y-17772714D01*
X5605000Y-17615572D02*
X5619286Y-17587000D01*
X5647857Y-17572714D01*
X5690714Y-17572714D01*
X5719286Y-17587000D01*
X5733571Y-17615572D01*
X5733571Y-17772714D01*
X6319286Y-17458429D02*
X6062143Y-17844143D01*
X6705000Y-17472714D02*
X6733571Y-17472714D01*
X6762143Y-17487000D01*
X6776428Y-17501286D01*
X6790714Y-17529857D01*
X6805000Y-17587000D01*
X6805000Y-17658429D01*
X6790714Y-17715572D01*
X6776428Y-17744143D01*
X6762143Y-17758429D01*
X6733571Y-17772714D01*
X6705000Y-17772714D01*
X6676428Y-17758429D01*
X6662143Y-17744143D01*
X6647857Y-17715572D01*
X6633571Y-17658429D01*
X6633571Y-17587000D01*
X6647857Y-17529857D01*
X6662143Y-17501286D01*
X6676428Y-17487000D01*
X6705000Y-17472714D01*
X6933571Y-17744143D02*
X6947857Y-17758429D01*
X6933571Y-17772714D01*
X6919286Y-17758429D01*
X6933571Y-17744143D01*
X6933571Y-17772714D01*
X7133571Y-17472714D02*
X7162143Y-17472714D01*
X7190714Y-17487000D01*
X7205000Y-17501286D01*
X7219286Y-17529857D01*
X7233571Y-17587000D01*
X7233571Y-17658429D01*
X7219286Y-17715572D01*
X7205000Y-17744143D01*
X7190714Y-17758429D01*
X7162143Y-17772714D01*
X7133571Y-17772714D01*
X7105000Y-17758429D01*
X7090714Y-17744143D01*
X7076428Y-17715572D01*
X7062143Y-17658429D01*
X7062143Y-17587000D01*
X7076428Y-17529857D01*
X7090714Y-17501286D01*
X7105000Y-17487000D01*
X7133571Y-17472714D01*
X7347857Y-17501286D02*
X7362143Y-17487000D01*
X7390714Y-17472714D01*
X7462143Y-17472714D01*
X7490714Y-17487000D01*
X7505000Y-17501286D01*
X7519286Y-17529857D01*
X7519286Y-17558429D01*
X7505000Y-17601286D01*
X7333571Y-17772714D01*
X7519286Y-17772714D01*
X7690714Y-17601286D02*
X7662143Y-17587000D01*
X7647857Y-17572714D01*
X7633571Y-17544143D01*
X7633571Y-17529857D01*
X7647857Y-17501286D01*
X7662143Y-17487000D01*
X7690714Y-17472714D01*
X7747857Y-17472714D01*
X7776428Y-17487000D01*
X7790714Y-17501286D01*
X7805000Y-17529857D01*
X7805000Y-17544143D01*
X7790714Y-17572714D01*
X7776428Y-17587000D01*
X7747857Y-17601286D01*
X7690714Y-17601286D01*
X7662143Y-17615572D01*
X7647857Y-17629857D01*
X7633571Y-17658429D01*
X7633571Y-17715572D01*
X7647857Y-17744143D01*
X7662143Y-17758429D01*
X7690714Y-17772714D01*
X7747857Y-17772714D01*
X7776428Y-17758429D01*
X7790714Y-17744143D01*
X7805000Y-17715572D01*
X7805000Y-17658429D01*
X7790714Y-17629857D01*
X7776428Y-17615572D01*
X7747857Y-17601286D01*
X7919286Y-17472714D02*
X7919286Y-17529857D01*
X8033571Y-17472714D02*
X8033571Y-17529857D01*
X8476428Y-17887000D02*
X8462143Y-17872714D01*
X8433571Y-17829857D01*
X8419286Y-17801286D01*
X8405000Y-17758429D01*
X8390714Y-17687000D01*
X8390714Y-17629857D01*
X8405000Y-17558429D01*
X8419286Y-17515572D01*
X8433571Y-17487000D01*
X8462143Y-17444143D01*
X8476428Y-17429857D01*
X8747857Y-17772714D02*
X8576428Y-17772714D01*
X8662143Y-17772714D02*
X8662143Y-17472714D01*
X8633571Y-17515572D01*
X8605000Y-17544143D01*
X8576428Y-17558429D01*
X8847857Y-17472714D02*
X9033571Y-17472714D01*
X8933571Y-17587000D01*
X8976428Y-17587000D01*
X9005000Y-17601286D01*
X9019286Y-17615572D01*
X9033571Y-17644143D01*
X9033571Y-17715572D01*
X9019286Y-17744143D01*
X9005000Y-17758429D01*
X8976428Y-17772714D01*
X8890714Y-17772714D01*
X8862143Y-17758429D01*
X8847857Y-17744143D01*
X9390714Y-17772714D02*
X9390714Y-17472714D01*
X9519286Y-17772714D02*
X9519286Y-17615572D01*
X9505000Y-17587000D01*
X9476428Y-17572714D01*
X9433571Y-17572714D01*
X9405000Y-17587000D01*
X9390714Y-17601286D01*
X9705000Y-17772714D02*
X9676428Y-17758429D01*
X9662143Y-17744143D01*
X9647857Y-17715572D01*
X9647857Y-17629857D01*
X9662143Y-17601286D01*
X9676428Y-17587000D01*
X9705000Y-17572714D01*
X9747857Y-17572714D01*
X9776428Y-17587000D01*
X9790714Y-17601286D01*
X9805000Y-17629857D01*
X9805000Y-17715572D01*
X9790714Y-17744143D01*
X9776428Y-17758429D01*
X9747857Y-17772714D01*
X9705000Y-17772714D01*
X9976428Y-17772714D02*
X9947857Y-17758429D01*
X9933571Y-17729857D01*
X9933571Y-17472714D01*
X10205000Y-17758429D02*
X10176428Y-17772714D01*
X10119286Y-17772714D01*
X10090714Y-17758429D01*
X10076428Y-17729857D01*
X10076428Y-17615572D01*
X10090714Y-17587000D01*
X10119286Y-17572714D01*
X10176428Y-17572714D01*
X10205000Y-17587000D01*
X10219286Y-17615572D01*
X10219286Y-17644143D01*
X10076428Y-17672714D01*
X10333571Y-17758429D02*
X10362143Y-17772714D01*
X10419286Y-17772714D01*
X10447857Y-17758429D01*
X10462143Y-17729857D01*
X10462143Y-17715572D01*
X10447857Y-17687000D01*
X10419286Y-17672714D01*
X10376428Y-17672714D01*
X10347857Y-17658429D01*
X10333571Y-17629857D01*
X10333571Y-17615572D01*
X10347857Y-17587000D01*
X10376428Y-17572714D01*
X10419286Y-17572714D01*
X10447857Y-17587000D01*
X10562143Y-17887000D02*
X10576428Y-17872714D01*
X10605000Y-17829857D01*
X10619286Y-17801286D01*
X10633571Y-17758429D01*
X10647857Y-17687000D01*
X10647857Y-17629857D01*
X10633571Y-17558429D01*
X10619286Y-17515572D01*
X10605000Y-17487000D01*
X10576428Y-17444143D01*
X10562143Y-17429857D01*
X3779017Y-18059517D02*
X3779017Y-18006483D01*
X3725983Y-18006483D01*
X3725983Y-18059517D01*
X3779017Y-18059517D01*
X4133571Y-17868714D02*
X4162143Y-17868714D01*
X4190714Y-17883000D01*
X4205000Y-17897286D01*
X4219286Y-17925857D01*
X4233571Y-17983000D01*
X4233571Y-18054429D01*
X4219286Y-18111572D01*
X4205000Y-18140143D01*
X4190714Y-18154429D01*
X4162143Y-18168714D01*
X4133571Y-18168714D01*
X4105000Y-18154429D01*
X4090714Y-18140143D01*
X4076428Y-18111572D01*
X4062143Y-18054429D01*
X4062143Y-17983000D01*
X4076428Y-17925857D01*
X4090714Y-17897286D01*
X4105000Y-17883000D01*
X4133571Y-17868714D01*
X4362143Y-18140143D02*
X4376428Y-18154429D01*
X4362143Y-18168714D01*
X4347857Y-18154429D01*
X4362143Y-18140143D01*
X4362143Y-18168714D01*
X4476428Y-17868714D02*
X4676428Y-17868714D01*
X4547857Y-18168714D01*
X4933571Y-17868714D02*
X4790714Y-17868714D01*
X4776428Y-18011572D01*
X4790714Y-17997286D01*
X4819286Y-17983000D01*
X4890714Y-17983000D01*
X4919286Y-17997286D01*
X4933571Y-18011572D01*
X4947857Y-18040143D01*
X4947857Y-18111572D01*
X4933571Y-18140143D01*
X4919286Y-18154429D01*
X4890714Y-18168714D01*
X4819286Y-18168714D01*
X4790714Y-18154429D01*
X4776428Y-18140143D01*
X5076428Y-18168714D02*
X5076428Y-17968714D01*
X5076428Y-17997286D02*
X5090714Y-17983000D01*
X5119286Y-17968714D01*
X5162143Y-17968714D01*
X5190714Y-17983000D01*
X5205000Y-18011572D01*
X5205000Y-18168714D01*
X5205000Y-18011572D02*
X5219286Y-17983000D01*
X5247857Y-17968714D01*
X5290714Y-17968714D01*
X5319286Y-17983000D01*
X5333571Y-18011572D01*
X5333571Y-18168714D01*
X5476428Y-18168714D02*
X5476428Y-17968714D01*
X5476428Y-17997286D02*
X5490714Y-17983000D01*
X5519286Y-17968714D01*
X5562143Y-17968714D01*
X5590714Y-17983000D01*
X5605000Y-18011572D01*
X5605000Y-18168714D01*
X5605000Y-18011572D02*
X5619286Y-17983000D01*
X5647857Y-17968714D01*
X5690714Y-17968714D01*
X5719286Y-17983000D01*
X5733571Y-18011572D01*
X5733571Y-18168714D01*
X6319286Y-17854429D02*
X6062143Y-18240143D01*
X6705000Y-17868714D02*
X6733571Y-17868714D01*
X6762143Y-17883000D01*
X6776428Y-17897286D01*
X6790714Y-17925857D01*
X6805000Y-17983000D01*
X6805000Y-18054429D01*
X6790714Y-18111572D01*
X6776428Y-18140143D01*
X6762143Y-18154429D01*
X6733571Y-18168714D01*
X6705000Y-18168714D01*
X6676428Y-18154429D01*
X6662143Y-18140143D01*
X6647857Y-18111572D01*
X6633571Y-18054429D01*
X6633571Y-17983000D01*
X6647857Y-17925857D01*
X6662143Y-17897286D01*
X6676428Y-17883000D01*
X6705000Y-17868714D01*
X6933571Y-18140143D02*
X6947857Y-18154429D01*
X6933571Y-18168714D01*
X6919286Y-18154429D01*
X6933571Y-18140143D01*
X6933571Y-18168714D01*
X7133571Y-17868714D02*
X7162143Y-17868714D01*
X7190714Y-17883000D01*
X7205000Y-17897286D01*
X7219286Y-17925857D01*
X7233571Y-17983000D01*
X7233571Y-18054429D01*
X7219286Y-18111572D01*
X7205000Y-18140143D01*
X7190714Y-18154429D01*
X7162143Y-18168714D01*
X7133571Y-18168714D01*
X7105000Y-18154429D01*
X7090714Y-18140143D01*
X7076428Y-18111572D01*
X7062143Y-18054429D01*
X7062143Y-17983000D01*
X7076428Y-17925857D01*
X7090714Y-17897286D01*
X7105000Y-17883000D01*
X7133571Y-17868714D01*
X7333571Y-17868714D02*
X7519286Y-17868714D01*
X7419286Y-17983000D01*
X7462143Y-17983000D01*
X7490714Y-17997286D01*
X7505000Y-18011572D01*
X7519286Y-18040143D01*
X7519286Y-18111572D01*
X7505000Y-18140143D01*
X7490714Y-18154429D01*
X7462143Y-18168714D01*
X7376428Y-18168714D01*
X7347857Y-18154429D01*
X7333571Y-18140143D01*
X7705000Y-17868714D02*
X7733571Y-17868714D01*
X7762143Y-17883000D01*
X7776428Y-17897286D01*
X7790714Y-17925857D01*
X7805000Y-17983000D01*
X7805000Y-18054429D01*
X7790714Y-18111572D01*
X7776428Y-18140143D01*
X7762143Y-18154429D01*
X7733571Y-18168714D01*
X7705000Y-18168714D01*
X7676428Y-18154429D01*
X7662143Y-18140143D01*
X7647857Y-18111572D01*
X7633571Y-18054429D01*
X7633571Y-17983000D01*
X7647857Y-17925857D01*
X7662143Y-17897286D01*
X7676428Y-17883000D01*
X7705000Y-17868714D01*
X7919286Y-17868714D02*
X7919286Y-17925857D01*
X8033571Y-17868714D02*
X8033571Y-17925857D01*
X8476428Y-18283000D02*
X8462143Y-18268714D01*
X8433571Y-18225857D01*
X8419286Y-18197286D01*
X8405000Y-18154429D01*
X8390714Y-18083000D01*
X8390714Y-18025857D01*
X8405000Y-17954429D01*
X8419286Y-17911572D01*
X8433571Y-17883000D01*
X8462143Y-17840143D01*
X8476428Y-17825857D01*
X8562143Y-17868714D02*
X8747857Y-17868714D01*
X8647857Y-17983000D01*
X8690714Y-17983000D01*
X8719286Y-17997286D01*
X8733571Y-18011572D01*
X8747857Y-18040143D01*
X8747857Y-18111572D01*
X8733571Y-18140143D01*
X8719286Y-18154429D01*
X8690714Y-18168714D01*
X8605000Y-18168714D01*
X8576428Y-18154429D01*
X8562143Y-18140143D01*
X9105000Y-18168714D02*
X9105000Y-17868714D01*
X9233571Y-18168714D02*
X9233571Y-18011572D01*
X9219286Y-17983000D01*
X9190714Y-17968714D01*
X9147857Y-17968714D01*
X9119286Y-17983000D01*
X9105000Y-17997286D01*
X9419286Y-18168714D02*
X9390714Y-18154429D01*
X9376428Y-18140143D01*
X9362143Y-18111572D01*
X9362143Y-18025857D01*
X9376428Y-17997286D01*
X9390714Y-17983000D01*
X9419286Y-17968714D01*
X9462143Y-17968714D01*
X9490714Y-17983000D01*
X9505000Y-17997286D01*
X9519286Y-18025857D01*
X9519286Y-18111572D01*
X9505000Y-18140143D01*
X9490714Y-18154429D01*
X9462143Y-18168714D01*
X9419286Y-18168714D01*
X9690714Y-18168714D02*
X9662143Y-18154429D01*
X9647857Y-18125857D01*
X9647857Y-17868714D01*
X9919286Y-18154429D02*
X9890714Y-18168714D01*
X9833571Y-18168714D01*
X9805000Y-18154429D01*
X9790714Y-18125857D01*
X9790714Y-18011572D01*
X9805000Y-17983000D01*
X9833571Y-17968714D01*
X9890714Y-17968714D01*
X9919286Y-17983000D01*
X9933571Y-18011572D01*
X9933571Y-18040143D01*
X9790714Y-18068714D01*
X10047857Y-18154429D02*
X10076428Y-18168714D01*
X10133571Y-18168714D01*
X10162143Y-18154429D01*
X10176428Y-18125857D01*
X10176428Y-18111572D01*
X10162143Y-18083000D01*
X10133571Y-18068714D01*
X10090714Y-18068714D01*
X10062143Y-18054429D01*
X10047857Y-18025857D01*
X10047857Y-18011572D01*
X10062143Y-17983000D01*
X10090714Y-17968714D01*
X10133571Y-17968714D01*
X10162143Y-17983000D01*
X10276428Y-18283000D02*
X10290714Y-18268714D01*
X10319286Y-18225857D01*
X10333571Y-18197286D01*
X10347857Y-18154429D01*
X10362143Y-18083000D01*
X10362143Y-18025857D01*
X10347857Y-17954429D01*
X10333571Y-17911572D01*
X10319286Y-17883000D01*
X10290714Y-17840143D01*
X10276428Y-17825857D01*
X3742500Y-18476500D02*
X3790000Y-18429000D01*
X3742500Y-18381500D01*
X3695000Y-18429000D01*
X3742500Y-18476500D01*
X4133571Y-18264714D02*
X4162143Y-18264714D01*
X4190714Y-18279000D01*
X4205000Y-18293286D01*
X4219286Y-18321857D01*
X4233571Y-18379000D01*
X4233571Y-18450429D01*
X4219286Y-18507572D01*
X4205000Y-18536143D01*
X4190714Y-18550429D01*
X4162143Y-18564714D01*
X4133571Y-18564714D01*
X4105000Y-18550429D01*
X4090714Y-18536143D01*
X4076428Y-18507572D01*
X4062143Y-18450429D01*
X4062143Y-18379000D01*
X4076428Y-18321857D01*
X4090714Y-18293286D01*
X4105000Y-18279000D01*
X4133571Y-18264714D01*
X4362143Y-18536143D02*
X4376428Y-18550429D01*
X4362143Y-18564714D01*
X4347857Y-18550429D01*
X4362143Y-18536143D01*
X4362143Y-18564714D01*
X4519286Y-18564714D02*
X4576428Y-18564714D01*
X4605000Y-18550429D01*
X4619286Y-18536143D01*
X4647857Y-18493286D01*
X4662143Y-18436143D01*
X4662143Y-18321857D01*
X4647857Y-18293286D01*
X4633571Y-18279000D01*
X4605000Y-18264714D01*
X4547857Y-18264714D01*
X4519286Y-18279000D01*
X4505000Y-18293286D01*
X4490714Y-18321857D01*
X4490714Y-18393286D01*
X4505000Y-18421857D01*
X4519286Y-18436143D01*
X4547857Y-18450429D01*
X4605000Y-18450429D01*
X4633571Y-18436143D01*
X4647857Y-18421857D01*
X4662143Y-18393286D01*
X4933571Y-18264714D02*
X4790714Y-18264714D01*
X4776428Y-18407572D01*
X4790714Y-18393286D01*
X4819286Y-18379000D01*
X4890714Y-18379000D01*
X4919286Y-18393286D01*
X4933571Y-18407572D01*
X4947857Y-18436143D01*
X4947857Y-18507572D01*
X4933571Y-18536143D01*
X4919286Y-18550429D01*
X4890714Y-18564714D01*
X4819286Y-18564714D01*
X4790714Y-18550429D01*
X4776428Y-18536143D01*
X5076428Y-18564714D02*
X5076428Y-18364714D01*
X5076428Y-18393286D02*
X5090714Y-18379000D01*
X5119286Y-18364714D01*
X5162143Y-18364714D01*
X5190714Y-18379000D01*
X5205000Y-18407572D01*
X5205000Y-18564714D01*
X5205000Y-18407572D02*
X5219286Y-18379000D01*
X5247857Y-18364714D01*
X5290714Y-18364714D01*
X5319286Y-18379000D01*
X5333571Y-18407572D01*
X5333571Y-18564714D01*
X5476428Y-18564714D02*
X5476428Y-18364714D01*
X5476428Y-18393286D02*
X5490714Y-18379000D01*
X5519286Y-18364714D01*
X5562143Y-18364714D01*
X5590714Y-18379000D01*
X5605000Y-18407572D01*
X5605000Y-18564714D01*
X5605000Y-18407572D02*
X5619286Y-18379000D01*
X5647857Y-18364714D01*
X5690714Y-18364714D01*
X5719286Y-18379000D01*
X5733571Y-18407572D01*
X5733571Y-18564714D01*
X6319286Y-18250429D02*
X6062143Y-18636143D01*
X6705000Y-18264714D02*
X6733571Y-18264714D01*
X6762143Y-18279000D01*
X6776428Y-18293286D01*
X6790714Y-18321857D01*
X6805000Y-18379000D01*
X6805000Y-18450429D01*
X6790714Y-18507572D01*
X6776428Y-18536143D01*
X6762143Y-18550429D01*
X6733571Y-18564714D01*
X6705000Y-18564714D01*
X6676428Y-18550429D01*
X6662143Y-18536143D01*
X6647857Y-18507572D01*
X6633571Y-18450429D01*
X6633571Y-18379000D01*
X6647857Y-18321857D01*
X6662143Y-18293286D01*
X6676428Y-18279000D01*
X6705000Y-18264714D01*
X6933571Y-18536143D02*
X6947857Y-18550429D01*
X6933571Y-18564714D01*
X6919286Y-18550429D01*
X6933571Y-18536143D01*
X6933571Y-18564714D01*
X7133571Y-18264714D02*
X7162143Y-18264714D01*
X7190714Y-18279000D01*
X7205000Y-18293286D01*
X7219286Y-18321857D01*
X7233571Y-18379000D01*
X7233571Y-18450429D01*
X7219286Y-18507572D01*
X7205000Y-18536143D01*
X7190714Y-18550429D01*
X7162143Y-18564714D01*
X7133571Y-18564714D01*
X7105000Y-18550429D01*
X7090714Y-18536143D01*
X7076428Y-18507572D01*
X7062143Y-18450429D01*
X7062143Y-18379000D01*
X7076428Y-18321857D01*
X7090714Y-18293286D01*
X7105000Y-18279000D01*
X7133571Y-18264714D01*
X7333571Y-18264714D02*
X7519286Y-18264714D01*
X7419286Y-18379000D01*
X7462143Y-18379000D01*
X7490714Y-18393286D01*
X7505000Y-18407572D01*
X7519286Y-18436143D01*
X7519286Y-18507572D01*
X7505000Y-18536143D01*
X7490714Y-18550429D01*
X7462143Y-18564714D01*
X7376428Y-18564714D01*
X7347857Y-18550429D01*
X7333571Y-18536143D01*
X7619286Y-18264714D02*
X7819286Y-18264714D01*
X7690714Y-18564714D01*
X7919286Y-18264714D02*
X7919286Y-18321857D01*
X8033571Y-18264714D02*
X8033571Y-18321857D01*
X8476428Y-18679000D02*
X8462143Y-18664714D01*
X8433571Y-18621857D01*
X8419286Y-18593286D01*
X8405000Y-18550429D01*
X8390714Y-18479000D01*
X8390714Y-18421857D01*
X8405000Y-18350429D01*
X8419286Y-18307572D01*
X8433571Y-18279000D01*
X8462143Y-18236143D01*
X8476428Y-18221857D01*
X8633571Y-18393286D02*
X8605000Y-18379000D01*
X8590714Y-18364714D01*
X8576428Y-18336143D01*
X8576428Y-18321857D01*
X8590714Y-18293286D01*
X8605000Y-18279000D01*
X8633571Y-18264714D01*
X8690714Y-18264714D01*
X8719286Y-18279000D01*
X8733571Y-18293286D01*
X8747857Y-18321857D01*
X8747857Y-18336143D01*
X8733571Y-18364714D01*
X8719286Y-18379000D01*
X8690714Y-18393286D01*
X8633571Y-18393286D01*
X8605000Y-18407572D01*
X8590714Y-18421857D01*
X8576428Y-18450429D01*
X8576428Y-18507572D01*
X8590714Y-18536143D01*
X8605000Y-18550429D01*
X8633571Y-18564714D01*
X8690714Y-18564714D01*
X8719286Y-18550429D01*
X8733571Y-18536143D01*
X8747857Y-18507572D01*
X8747857Y-18450429D01*
X8733571Y-18421857D01*
X8719286Y-18407572D01*
X8690714Y-18393286D01*
X9105000Y-18564714D02*
X9105000Y-18264714D01*
X9233571Y-18564714D02*
X9233571Y-18407572D01*
X9219286Y-18379000D01*
X9190714Y-18364714D01*
X9147857Y-18364714D01*
X9119286Y-18379000D01*
X9105000Y-18393286D01*
X9419286Y-18564714D02*
X9390714Y-18550429D01*
X9376428Y-18536143D01*
X9362143Y-18507572D01*
X9362143Y-18421857D01*
X9376428Y-18393286D01*
X9390714Y-18379000D01*
X9419286Y-18364714D01*
X9462143Y-18364714D01*
X9490714Y-18379000D01*
X9505000Y-18393286D01*
X9519286Y-18421857D01*
X9519286Y-18507572D01*
X9505000Y-18536143D01*
X9490714Y-18550429D01*
X9462143Y-18564714D01*
X9419286Y-18564714D01*
X9690714Y-18564714D02*
X9662143Y-18550429D01*
X9647857Y-18521857D01*
X9647857Y-18264714D01*
X9919286Y-18550429D02*
X9890714Y-18564714D01*
X9833571Y-18564714D01*
X9805000Y-18550429D01*
X9790714Y-18521857D01*
X9790714Y-18407572D01*
X9805000Y-18379000D01*
X9833571Y-18364714D01*
X9890714Y-18364714D01*
X9919286Y-18379000D01*
X9933571Y-18407572D01*
X9933571Y-18436143D01*
X9790714Y-18464714D01*
X10047857Y-18550429D02*
X10076428Y-18564714D01*
X10133571Y-18564714D01*
X10162143Y-18550429D01*
X10176428Y-18521857D01*
X10176428Y-18507572D01*
X10162143Y-18479000D01*
X10133571Y-18464714D01*
X10090714Y-18464714D01*
X10062143Y-18450429D01*
X10047857Y-18421857D01*
X10047857Y-18407572D01*
X10062143Y-18379000D01*
X10090714Y-18364714D01*
X10133571Y-18364714D01*
X10162143Y-18379000D01*
X10276428Y-18679000D02*
X10290714Y-18664714D01*
X10319286Y-18621857D01*
X10333571Y-18593286D01*
X10347857Y-18550429D01*
X10362143Y-18479000D01*
X10362143Y-18421857D01*
X10347857Y-18350429D01*
X10333571Y-18307572D01*
X10319286Y-18279000D01*
X10290714Y-18236143D01*
X10276428Y-18221857D01*
X3670000Y-18765000D02*
X3790000Y-18885000D01*
X3790000Y-18765000D02*
X3670000Y-18885000D01*
X3790000Y-18825000D02*
G75*
G03*
X3790000Y-18825000I-60000J0D01*
G01*
X4233571Y-18960714D02*
X4062143Y-18960714D01*
X4147857Y-18960714D02*
X4147857Y-18660714D01*
X4119286Y-18703572D01*
X4090714Y-18732143D01*
X4062143Y-18746429D01*
X4362143Y-18932143D02*
X4376428Y-18946429D01*
X4362143Y-18960714D01*
X4347857Y-18946429D01*
X4362143Y-18932143D01*
X4362143Y-18960714D01*
X4490714Y-18689286D02*
X4505000Y-18675000D01*
X4533571Y-18660714D01*
X4605000Y-18660714D01*
X4633571Y-18675000D01*
X4647857Y-18689286D01*
X4662143Y-18717857D01*
X4662143Y-18746429D01*
X4647857Y-18789286D01*
X4476428Y-18960714D01*
X4662143Y-18960714D01*
X4847857Y-18660714D02*
X4876428Y-18660714D01*
X4905000Y-18675000D01*
X4919286Y-18689286D01*
X4933571Y-18717857D01*
X4947857Y-18775000D01*
X4947857Y-18846429D01*
X4933571Y-18903572D01*
X4919286Y-18932143D01*
X4905000Y-18946429D01*
X4876428Y-18960714D01*
X4847857Y-18960714D01*
X4819286Y-18946429D01*
X4805000Y-18932143D01*
X4790714Y-18903572D01*
X4776428Y-18846429D01*
X4776428Y-18775000D01*
X4790714Y-18717857D01*
X4805000Y-18689286D01*
X4819286Y-18675000D01*
X4847857Y-18660714D01*
X5076428Y-18960714D02*
X5076428Y-18760714D01*
X5076428Y-18789286D02*
X5090714Y-18775000D01*
X5119286Y-18760714D01*
X5162143Y-18760714D01*
X5190714Y-18775000D01*
X5205000Y-18803572D01*
X5205000Y-18960714D01*
X5205000Y-18803572D02*
X5219286Y-18775000D01*
X5247857Y-18760714D01*
X5290714Y-18760714D01*
X5319286Y-18775000D01*
X5333571Y-18803572D01*
X5333571Y-18960714D01*
X5476428Y-18960714D02*
X5476428Y-18760714D01*
X5476428Y-18789286D02*
X5490714Y-18775000D01*
X5519286Y-18760714D01*
X5562143Y-18760714D01*
X5590714Y-18775000D01*
X5605000Y-18803572D01*
X5605000Y-18960714D01*
X5605000Y-18803572D02*
X5619286Y-18775000D01*
X5647857Y-18760714D01*
X5690714Y-18760714D01*
X5719286Y-18775000D01*
X5733571Y-18803572D01*
X5733571Y-18960714D01*
X6319286Y-18646429D02*
X6062143Y-19032143D01*
X6705000Y-18660714D02*
X6733571Y-18660714D01*
X6762143Y-18675000D01*
X6776428Y-18689286D01*
X6790714Y-18717857D01*
X6805000Y-18775000D01*
X6805000Y-18846429D01*
X6790714Y-18903572D01*
X6776428Y-18932143D01*
X6762143Y-18946429D01*
X6733571Y-18960714D01*
X6705000Y-18960714D01*
X6676428Y-18946429D01*
X6662143Y-18932143D01*
X6647857Y-18903572D01*
X6633571Y-18846429D01*
X6633571Y-18775000D01*
X6647857Y-18717857D01*
X6662143Y-18689286D01*
X6676428Y-18675000D01*
X6705000Y-18660714D01*
X6933571Y-18932143D02*
X6947857Y-18946429D01*
X6933571Y-18960714D01*
X6919286Y-18946429D01*
X6933571Y-18932143D01*
X6933571Y-18960714D01*
X7133571Y-18660714D02*
X7162143Y-18660714D01*
X7190714Y-18675000D01*
X7205000Y-18689286D01*
X7219286Y-18717857D01*
X7233571Y-18775000D01*
X7233571Y-18846429D01*
X7219286Y-18903572D01*
X7205000Y-18932143D01*
X7190714Y-18946429D01*
X7162143Y-18960714D01*
X7133571Y-18960714D01*
X7105000Y-18946429D01*
X7090714Y-18932143D01*
X7076428Y-18903572D01*
X7062143Y-18846429D01*
X7062143Y-18775000D01*
X7076428Y-18717857D01*
X7090714Y-18689286D01*
X7105000Y-18675000D01*
X7133571Y-18660714D01*
X7490714Y-18760714D02*
X7490714Y-18960714D01*
X7419286Y-18646429D02*
X7347857Y-18860714D01*
X7533571Y-18860714D01*
X7619286Y-18660714D02*
X7819286Y-18660714D01*
X7690714Y-18960714D01*
X7919286Y-18660714D02*
X7919286Y-18717857D01*
X8033571Y-18660714D02*
X8033571Y-18717857D01*
X8476428Y-19075000D02*
X8462143Y-19060714D01*
X8433571Y-19017857D01*
X8419286Y-18989286D01*
X8405000Y-18946429D01*
X8390714Y-18875000D01*
X8390714Y-18817857D01*
X8405000Y-18746429D01*
X8419286Y-18703572D01*
X8433571Y-18675000D01*
X8462143Y-18632143D01*
X8476428Y-18617857D01*
X8747857Y-18960714D02*
X8576428Y-18960714D01*
X8662143Y-18960714D02*
X8662143Y-18660714D01*
X8633571Y-18703572D01*
X8605000Y-18732143D01*
X8576428Y-18746429D01*
X9019286Y-18660714D02*
X8876428Y-18660714D01*
X8862143Y-18803572D01*
X8876428Y-18789286D01*
X8905000Y-18775000D01*
X8976428Y-18775000D01*
X9005000Y-18789286D01*
X9019286Y-18803572D01*
X9033571Y-18832143D01*
X9033571Y-18903572D01*
X9019286Y-18932143D01*
X9005000Y-18946429D01*
X8976428Y-18960714D01*
X8905000Y-18960714D01*
X8876428Y-18946429D01*
X8862143Y-18932143D01*
X9390714Y-18960714D02*
X9390714Y-18660714D01*
X9519286Y-18960714D02*
X9519286Y-18803572D01*
X9505000Y-18775000D01*
X9476428Y-18760714D01*
X9433571Y-18760714D01*
X9405000Y-18775000D01*
X9390714Y-18789286D01*
X9705000Y-18960714D02*
X9676428Y-18946429D01*
X9662143Y-18932143D01*
X9647857Y-18903572D01*
X9647857Y-18817857D01*
X9662143Y-18789286D01*
X9676428Y-18775000D01*
X9705000Y-18760714D01*
X9747857Y-18760714D01*
X9776428Y-18775000D01*
X9790714Y-18789286D01*
X9805000Y-18817857D01*
X9805000Y-18903572D01*
X9790714Y-18932143D01*
X9776428Y-18946429D01*
X9747857Y-18960714D01*
X9705000Y-18960714D01*
X9976428Y-18960714D02*
X9947857Y-18946429D01*
X9933571Y-18917857D01*
X9933571Y-18660714D01*
X10205000Y-18946429D02*
X10176428Y-18960714D01*
X10119286Y-18960714D01*
X10090714Y-18946429D01*
X10076428Y-18917857D01*
X10076428Y-18803572D01*
X10090714Y-18775000D01*
X10119286Y-18760714D01*
X10176428Y-18760714D01*
X10205000Y-18775000D01*
X10219286Y-18803572D01*
X10219286Y-18832143D01*
X10076428Y-18860714D01*
X10333571Y-18946429D02*
X10362143Y-18960714D01*
X10419286Y-18960714D01*
X10447857Y-18946429D01*
X10462143Y-18917857D01*
X10462143Y-18903572D01*
X10447857Y-18875000D01*
X10419286Y-18860714D01*
X10376428Y-18860714D01*
X10347857Y-18846429D01*
X10333571Y-18817857D01*
X10333571Y-18803572D01*
X10347857Y-18775000D01*
X10376428Y-18760714D01*
X10419286Y-18760714D01*
X10447857Y-18775000D01*
X10562143Y-19075000D02*
X10576428Y-19060714D01*
X10605000Y-19017857D01*
X10619286Y-18989286D01*
X10633571Y-18946429D01*
X10647857Y-18875000D01*
X10647857Y-18817857D01*
X10633571Y-18746429D01*
X10619286Y-18703572D01*
X10605000Y-18675000D01*
X10576428Y-18632143D01*
X10562143Y-18617857D01*
M02*
