G04 #@! TF.GenerationSoftware,KiCad,Pcbnew,(5.1.6)-1*
G04 #@! TF.CreationDate,2021-04-11T16:08:57+02:00*
G04 #@! TF.ProjectId,wall-sensor-of-room-temperature,77616c6c-2d73-4656-9e73-6f722d6f662d,rev?*
G04 #@! TF.SameCoordinates,Original*
G04 #@! TF.FileFunction,Profile,NP*
%FSLAX46Y46*%
G04 Gerber Fmt 4.6, Leading zero omitted, Abs format (unit mm)*
G04 Created by KiCad (PCBNEW (5.1.6)-1) date 2021-04-11 16:08:57*
%MOMM*%
%LPD*%
G01*
G04 APERTURE LIST*
G04 #@! TA.AperFunction,Profile*
%ADD10C,0.200000*%
G04 #@! TD*
G04 APERTURE END LIST*
D10*
X61595000Y-158750000D02*
X61595000Y-148720000D01*
X119380000Y-158750000D02*
X119380000Y-148720000D01*
X145000000Y-158750000D02*
X119380000Y-158750000D01*
X145000000Y-158750000D02*
X145000000Y-148720000D01*
X38000000Y-158750000D02*
X61595000Y-158750000D01*
X97790000Y-148720000D02*
X119380000Y-148720000D01*
X97790000Y-158750000D02*
X97790000Y-148720000D01*
X97790000Y-158750000D02*
X85090000Y-158750000D01*
X85090000Y-158750000D02*
X85090000Y-148720000D01*
X65532000Y-144145000D02*
G75*
G02*
X62611000Y-144145000I-1460500J0D01*
G01*
X62611000Y-135255000D02*
G75*
G02*
X65532000Y-135255000I1460500J0D01*
G01*
X71925000Y-123825000D02*
G75*
G02*
X69025000Y-123825000I-1450000J0D01*
G01*
X69025000Y-98425000D02*
G75*
G02*
X71925000Y-98425000I1450000J0D01*
G01*
X42418000Y-87800000D02*
G75*
G02*
X42418000Y-84900000I0J1450000D01*
G01*
X70485000Y-84900000D02*
G75*
G02*
X70485000Y-87800000I0J-1450000D01*
G01*
X137795000Y-105410000D02*
X137795000Y-68720000D01*
X145000000Y-105410000D02*
X137795000Y-105410000D01*
X65532000Y-135255000D02*
X65532000Y-144145000D01*
X62611000Y-144145000D02*
X62611000Y-135255000D01*
X71925000Y-98425000D02*
X71925000Y-123825000D01*
X69025000Y-123825000D02*
X69025000Y-98425000D01*
X42418000Y-84900000D02*
X70485000Y-84900000D01*
X70485000Y-87800000D02*
X42418000Y-87800000D01*
X38000000Y-68720000D02*
X137795000Y-68720000D01*
X61595000Y-148720000D02*
X85090000Y-148720000D01*
X145000000Y-105410000D02*
X145000000Y-148720000D01*
X38000000Y-68720000D02*
X38000000Y-158750000D01*
M02*
