G04 #@! TF.GenerationSoftware,KiCad,Pcbnew,(5.1.6)-1*
G04 #@! TF.CreationDate,2021-04-11T16:08:57+02:00*
G04 #@! TF.ProjectId,wall-sensor-of-room-temperature,77616c6c-2d73-4656-9e73-6f722d6f662d,rev?*
G04 #@! TF.SameCoordinates,Original*
G04 #@! TF.FileFunction,Soldermask,Bot*
G04 #@! TF.FilePolarity,Negative*
%FSLAX46Y46*%
G04 Gerber Fmt 4.6, Leading zero omitted, Abs format (unit mm)*
G04 Created by KiCad (PCBNEW (5.1.6)-1) date 2021-04-11 16:08:57*
%MOMM*%
%LPD*%
G01*
G04 APERTURE LIST*
%ADD10R,0.400000X0.900000*%
%ADD11R,0.900000X0.400000*%
%ADD12R,0.500000X1.700000*%
%ADD13C,0.150000*%
%ADD14C,2.300000*%
%ADD15R,1.400000X1.100000*%
%ADD16C,3.300000*%
%ADD17O,1.800000X1.800000*%
%ADD18R,1.800000X1.800000*%
%ADD19R,2.300000X0.900000*%
%ADD20R,1.150000X1.600000*%
%ADD21C,1.750000*%
%ADD22C,3.400000*%
%ADD23C,1.950000*%
%ADD24C,3.100000*%
%ADD25C,3.600000*%
%ADD26R,1.400000X1.600000*%
%ADD27R,1.600000X1.400000*%
%ADD28R,0.900000X0.900000*%
%ADD29R,2.600000X2.600000*%
G04 APERTURE END LIST*
D10*
X129675000Y-142145000D03*
X131175000Y-142145000D03*
X129175000Y-141065000D03*
X129675000Y-141065000D03*
X130175000Y-142145000D03*
X130675000Y-142145000D03*
X129175000Y-142145000D03*
X130175000Y-141065000D03*
X130675000Y-141065000D03*
X131175000Y-141065000D03*
D11*
X78200000Y-108720000D03*
X78200000Y-110220000D03*
X79280000Y-108220000D03*
X79280000Y-108720000D03*
X78200000Y-109220000D03*
X78200000Y-109720000D03*
X78200000Y-108220000D03*
X79280000Y-109220000D03*
X79280000Y-109720000D03*
X79280000Y-110220000D03*
D12*
X54625000Y-105087500D03*
D13*
G36*
X55675000Y-104237500D02*
G01*
X56175000Y-104237500D01*
X56175000Y-105937500D01*
X55675000Y-105937500D01*
X55675000Y-104237500D01*
G37*
D12*
X53975000Y-110812500D03*
X55275000Y-105087500D03*
X53325000Y-105087500D03*
X53325000Y-110812500D03*
X55275000Y-110812500D03*
X52025000Y-105087500D03*
X52675000Y-105087500D03*
X53975000Y-105087500D03*
X54625000Y-110812500D03*
X52675000Y-110812500D03*
X55925000Y-110812500D03*
X52025000Y-110812500D03*
D14*
X59055000Y-155575000D03*
X120015000Y-142240000D03*
D15*
X62500000Y-76515000D03*
X64500000Y-75565000D03*
X62500000Y-74615000D03*
D14*
X41910000Y-134620000D03*
X83185000Y-146050000D03*
D16*
X61000000Y-125720000D03*
X61000000Y-91720000D03*
D14*
X141605000Y-110490000D03*
X141605000Y-155575000D03*
X83185000Y-123825000D03*
X105410000Y-85725000D03*
X64135000Y-99695000D03*
X41275000Y-80010000D03*
D17*
X123515000Y-110910000D03*
X123515000Y-108370000D03*
X123515000Y-98210000D03*
X123515000Y-100750000D03*
X123515000Y-115990000D03*
D18*
X123515000Y-118530000D03*
D17*
X123515000Y-113450000D03*
X123515000Y-105830000D03*
X123515000Y-103290000D03*
D19*
X100787200Y-145415000D03*
X100787200Y-146685000D03*
X100787200Y-144145000D03*
X97332800Y-146685000D03*
X97332800Y-145415000D03*
X97332800Y-144145000D03*
G36*
G01*
X92135000Y-156087500D02*
X92135000Y-155062500D01*
G75*
G02*
X92422500Y-154775000I287500J0D01*
G01*
X92997500Y-154775000D01*
G75*
G02*
X93285000Y-155062500I0J-287500D01*
G01*
X93285000Y-156087500D01*
G75*
G02*
X92997500Y-156375000I-287500J0D01*
G01*
X92422500Y-156375000D01*
G75*
G02*
X92135000Y-156087500I0J287500D01*
G01*
G37*
G36*
G01*
X90865000Y-156087500D02*
X90865000Y-155062500D01*
G75*
G02*
X91152500Y-154775000I287500J0D01*
G01*
X91727500Y-154775000D01*
G75*
G02*
X92015000Y-155062500I0J-287500D01*
G01*
X92015000Y-156087500D01*
G75*
G02*
X91727500Y-156375000I-287500J0D01*
G01*
X91152500Y-156375000D01*
G75*
G02*
X90865000Y-156087500I0J287500D01*
G01*
G37*
D20*
X90170000Y-155575000D03*
D21*
X45721000Y-145415000D03*
X52071000Y-142875000D03*
D22*
X41909000Y-151765000D03*
D21*
X50801000Y-145415000D03*
X44451000Y-142875000D03*
X48261000Y-145415000D03*
X46991000Y-142875000D03*
X49531000Y-142875000D03*
X43181000Y-145415000D03*
D22*
X53341000Y-151765000D03*
D23*
X74295000Y-142320000D03*
X74295000Y-133270000D03*
D24*
X74295000Y-144745000D03*
D25*
X80595000Y-140345000D03*
X80595000Y-135245000D03*
X67995000Y-140345000D03*
X67995000Y-135245000D03*
D23*
X91500000Y-142320000D03*
X91500000Y-133270000D03*
D24*
X91500000Y-144745000D03*
D25*
X97800000Y-140345000D03*
X97800000Y-135245000D03*
X85200000Y-140345000D03*
X85200000Y-135245000D03*
D23*
X108585000Y-142320000D03*
X108585000Y-133270000D03*
D24*
X108585000Y-144745000D03*
D25*
X114885000Y-140345000D03*
X114885000Y-135245000D03*
X102285000Y-140345000D03*
X102285000Y-135245000D03*
D26*
X105110000Y-144145000D03*
X103170000Y-144145000D03*
X133650000Y-80645000D03*
X135590000Y-80645000D03*
D27*
X66040000Y-73360000D03*
X66040000Y-71420000D03*
X62230000Y-72725000D03*
X62230000Y-70785000D03*
D26*
X54945000Y-75565000D03*
X53005000Y-75565000D03*
D27*
X60325000Y-80980000D03*
X60325000Y-79040000D03*
X46990000Y-134320000D03*
X46990000Y-132380000D03*
D13*
G36*
X41975000Y-92395000D02*
G01*
X41975000Y-94295000D01*
X40575000Y-94295000D01*
X40575000Y-92395000D01*
X41975000Y-92395000D01*
G37*
G36*
X44515000Y-92395000D02*
G01*
X44515000Y-94295000D01*
X43115000Y-94295000D01*
X43115000Y-92395000D01*
X44515000Y-92395000D01*
G37*
D27*
X66675000Y-77805000D03*
X66675000Y-75865000D03*
X69215000Y-75865000D03*
X69215000Y-77805000D03*
D26*
X54310000Y-96520000D03*
X52370000Y-96520000D03*
D27*
X55880000Y-101935000D03*
X55880000Y-99995000D03*
X59055000Y-101935000D03*
X59055000Y-99995000D03*
D26*
X88600000Y-111125000D03*
X86660000Y-111125000D03*
D27*
X91440000Y-99995000D03*
X91440000Y-101935000D03*
X93980000Y-99995000D03*
X93980000Y-101935000D03*
X96520000Y-99995000D03*
X96520000Y-101935000D03*
X55880000Y-113330000D03*
X55880000Y-115270000D03*
X53340000Y-113330000D03*
X53340000Y-115270000D03*
X99060000Y-99995000D03*
X99060000Y-101935000D03*
X46990000Y-112095000D03*
X46990000Y-110155000D03*
X49530000Y-112095000D03*
X49530000Y-110155000D03*
D13*
G36*
X84135000Y-100395000D02*
G01*
X82235000Y-100395000D01*
X82235000Y-98995000D01*
X84135000Y-98995000D01*
X84135000Y-100395000D01*
G37*
G36*
X84135000Y-102935000D02*
G01*
X82235000Y-102935000D01*
X82235000Y-101535000D01*
X84135000Y-101535000D01*
X84135000Y-102935000D01*
G37*
D27*
X81280000Y-116540000D03*
X81280000Y-114600000D03*
X104140000Y-106980000D03*
X104140000Y-108920000D03*
D26*
X87330000Y-104775000D03*
X85390000Y-104775000D03*
X87330000Y-107315000D03*
X85390000Y-107315000D03*
X84155000Y-111125000D03*
X82215000Y-111125000D03*
X85425000Y-114300000D03*
X83485000Y-114300000D03*
D27*
X85725000Y-71420000D03*
X85725000Y-73360000D03*
X81915000Y-73360000D03*
X81915000Y-71420000D03*
D15*
X81010000Y-75250000D03*
X79010000Y-76200000D03*
X81010000Y-77150000D03*
D17*
X127635000Y-147955000D03*
X130175000Y-147955000D03*
X130175000Y-145415000D03*
D18*
X127635000Y-145415000D03*
D17*
X132715000Y-147955000D03*
X132715000Y-145415000D03*
D28*
X77470000Y-136525000D03*
X77470000Y-139065000D03*
X94615000Y-136525000D03*
X94615000Y-139065000D03*
X111760000Y-136525000D03*
X111760000Y-139065000D03*
X73660000Y-73660000D03*
X73660000Y-71120000D03*
D15*
X60055000Y-74615000D03*
X58055000Y-75565000D03*
X60055000Y-76515000D03*
D29*
X52280000Y-118110000D03*
X46780000Y-118110000D03*
D27*
X74930000Y-136825000D03*
X74930000Y-138765000D03*
X92075000Y-136825000D03*
X92075000Y-138765000D03*
X109220000Y-136825000D03*
X109220000Y-138765000D03*
D26*
X133650000Y-83185000D03*
X135590000Y-83185000D03*
X133650000Y-75565000D03*
X135590000Y-75565000D03*
X133650000Y-78105000D03*
X135590000Y-78105000D03*
D27*
X71120000Y-73360000D03*
X71120000Y-71420000D03*
D26*
X49865000Y-75565000D03*
X47925000Y-75565000D03*
X58085000Y-72390000D03*
X60025000Y-72390000D03*
X64470000Y-78740000D03*
X62530000Y-78740000D03*
X41575000Y-95885000D03*
X43515000Y-95885000D03*
D27*
X68580000Y-73360000D03*
X68580000Y-71420000D03*
X52070000Y-101935000D03*
X52070000Y-99995000D03*
X49530000Y-105710000D03*
X49530000Y-107650000D03*
X48895000Y-99995000D03*
X48895000Y-101935000D03*
D13*
G36*
X43115000Y-119060000D02*
G01*
X43115000Y-117160000D01*
X44515000Y-117160000D01*
X44515000Y-119060000D01*
X43115000Y-119060000D01*
G37*
G36*
X40575000Y-119060000D02*
G01*
X40575000Y-117160000D01*
X41975000Y-117160000D01*
X41975000Y-119060000D01*
X40575000Y-119060000D01*
G37*
D27*
X95885000Y-117140000D03*
X95885000Y-119080000D03*
X99060000Y-117140000D03*
X99060000Y-119080000D03*
D26*
X82885000Y-104775000D03*
X80945000Y-104775000D03*
X82885000Y-107315000D03*
X80945000Y-107315000D03*
D27*
X76835000Y-73360000D03*
X76835000Y-71420000D03*
X79375000Y-73360000D03*
X79375000Y-71420000D03*
X104140000Y-111425000D03*
X104140000Y-113365000D03*
M02*
