M48
; DRILL file {KiCad (5.1.6)-1} date 04/11/21 16:09:22
; FORMAT={-:-/ absolute / metric / decimal}
; #@! TF.CreationDate,2021-04-11T16:09:22+02:00
; #@! TF.GenerationSoftware,Kicad,Pcbnew,(5.1.6)-1
; #@! TF.FileFunction,Plated,1,2,PTH
FMAT,2
METRIC
T1C0.400
T2C0.650
T3C0.700
T4C0.750
T5C0.950
T6C1.200
%
G90
G05
T1
X39.37Y-70.485
X39.37Y-81.915
X39.37Y-104.902
X39.37Y-106.68
X39.37Y-109.22
X39.37Y-118.745
X39.37Y-127.635
X39.37Y-139.7
X39.37Y-156.845
X40.005Y-102.235
X42.21Y-120.315
X42.545Y-111.125
X43.815Y-91.44
X44.45Y-103.505
X45.212Y-95.758
X45.466Y-113.792
X45.593Y-100.33
X45.593Y-101.6
X45.72Y-91.44
X46.355Y-120.015
X46.355Y-135.89
X46.482Y-95.758
X46.99Y-83.185
X48.26Y-106.68
X48.26Y-111.125
X48.895Y-90.17
X49.53Y-135.255
X50.8Y-73.66
X52.07Y-109.22
X52.07Y-114.3
X53.34Y-73.66
X53.87Y-100.33
X53.87Y-108.69
X54.61Y-90.17
X54.61Y-118.745
X55.88Y-118.745
X56.515Y-156.845
X57.15Y-99.695
X57.15Y-109.855
X57.15Y-111.125
X57.15Y-112.395
X57.15Y-118.745
X57.785Y-127.635
X58.42Y-144.145
X59.69Y-83.185
X59.69Y-135.89
X59.83Y-69.71
X62.865Y-113.665
X64.135Y-104.775
X64.135Y-107.315
X64.135Y-111.125
X66.04Y-80.01
X66.04Y-93.345
X67.31Y-100.965
X68.58Y-80.01
X69.215Y-146.685
X71.12Y-76.835
X72.39Y-130.175
X73.66Y-78.74
X73.66Y-81.28
X73.66Y-95.885
X76.2Y-76.2
X76.2Y-86.36
X76.2Y-87.63
X76.2Y-120.015
X76.835Y-90.805
X76.835Y-104.775
X76.835Y-107.315
X76.835Y-111.125
X76.835Y-113.665
X77.47Y-76.2
X77.47Y-96.52
X78.74Y-121.285
X78.74Y-127.635
X78.74Y-146.685
X79.375Y-107.315
X79.375Y-111.125
X80.645Y-109.22
X80.645Y-118.11
X81.28Y-99.695
X81.58Y-94.95
X83.82Y-73.66
X83.82Y-96.52
X83.82Y-108.585
X85.09Y-109.22
X85.205Y-95.135
X86.995Y-92.79
X86.995Y-96.52
X87.122Y-99.695
X88.265Y-117.475
X88.475Y-92.92
X88.9Y-128.27
X88.91Y-104.765
X89.535Y-70.485
X89.535Y-96.52
X90.17Y-111.125
X90.805Y-147.955
X91.44Y-104.775
X92.075Y-73.66
X93.345Y-122.555
X93.98Y-109.22
X94.615Y-94.615
X94.615Y-103.505
X94.73Y-108.47
X95.25Y-144.145
X95.25Y-151.13
X95.725Y-103.555
X95.885Y-76.835
X95.885Y-80.645
X95.885Y-84.455
X95.885Y-88.265
X95.885Y-106.68
X95.885Y-120.65
X96.52Y-111.76
X96.635Y-107.43
X96.723Y-103.492
X97.155Y-94.615
X98.395Y-108.19
X98.425Y-107.188
X98.425Y-109.22
X99.06Y-76.835
X99.06Y-80.645
X99.06Y-84.455
X99.06Y-88.265
X99.06Y-94.615
X99.06Y-103.505
X99.06Y-110.49
X99.06Y-111.76
X99.06Y-120.65
X99.06Y-128.27
X99.187Y-106.426
X102.235Y-111.125
X102.35Y-107.315
X102.87Y-115.57
X104.14Y-146.05
X104.775Y-122.555
X105.41Y-70.485
X105.41Y-99.695
X105.745Y-142.54
X106.045Y-108.585
X106.045Y-135.255
X106.68Y-98.425
X108.585Y-85.725
X108.585Y-98.425
X109.855Y-84.455
X109.855Y-95.25
X109.855Y-97.155
X111.125Y-91.44
X111.125Y-95.25
X111.125Y-100.965
X111.57Y-99.06
X112.395Y-122.555
X113.665Y-122.555
X116.205Y-76.2
X116.205Y-122.555
X117.475Y-74.295
X117.475Y-91.44
X117.475Y-122.555
X118.53Y-115.99
X118.745Y-96.52
X120.015Y-74.295
X120.015Y-91.44
X120.015Y-133.985
X120.015Y-137.795
X121.285Y-74.295
X121.285Y-81.615
X121.285Y-84.455
X121.285Y-156.845
X121.92Y-91.44
X121.92Y-124.46
X121.92Y-131.445
X122.555Y-84.455
X123.19Y-137.16
X123.19Y-145.415
X123.825Y-94.615
X124.46Y-74.295
X124.46Y-151.13
X125.412Y-134.938
X125.73Y-74.295
X125.73Y-127.635
X127.0Y-74.295
X127.0Y-86.995
X127.0Y-91.44
X127.635Y-84.455
X128.27Y-74.295
X130.175Y-91.44
X130.175Y-114.935
X130.175Y-139.7
X130.175Y-143.51
X130.81Y-74.295
X133.985Y-93.345
X133.985Y-99.06
X133.985Y-103.505
X134.33Y-91.15
X134.62Y-76.835
X134.62Y-79.375
X135.128Y-74.115
X135.6Y-91.15
X136.94Y-76.42
X136.94Y-82.77
X137.16Y-151.13
X137.16Y-156.845
X142.875Y-115.57
X142.875Y-132.08
X142.875Y-150.495
T2
X130.175Y-145.415
X132.715Y-147.955
T3
X127.635Y-145.415
X127.635Y-147.955
X130.175Y-147.955
X132.715Y-145.415
X123.515Y-98.21
X123.515Y-100.75
X123.515Y-103.29
X123.515Y-105.83
X123.515Y-108.37
X123.515Y-110.91
X123.515Y-113.45
X123.515Y-115.99
X123.515Y-118.53
T4
X90.17Y-155.575
X91.44Y-155.575
X92.71Y-155.575
T5
X43.181Y-145.415
X44.451Y-142.875
X45.721Y-145.415
X46.991Y-142.875
X48.261Y-145.415
X49.531Y-142.875
X50.801Y-145.415
X52.071Y-142.875
T6
X102.285Y-135.245
X102.285Y-140.345
X108.585Y-144.745
X114.885Y-135.245
X114.885Y-140.345
X85.2Y-135.245
X85.2Y-140.345
X91.5Y-144.745
X97.8Y-135.245
X97.8Y-140.345
X67.995Y-135.245
X67.995Y-140.345
X74.295Y-144.745
X80.595Y-135.245
X80.595Y-140.345
T0
M30
